<?xml version="1.0" encoding="utf-8"?>
<!-- Generator: Adobe Illustrator 23.0.3, SVG Export Plug-In . SVG Version: 6.00 Build 0)  -->
<svg version="1.1" xmlns="http://www.w3.org/2000/svg" xmlns:xlink="http://www.w3.org/1999/xlink" x="0px" y="0px"
	 viewBox="0 0 257.3 79.5" style="enable-background:new 0 0 257.3 79.5;" xml:space="preserve">
<style type="text/css">
	.st0{display:none;}
	.st1{display:inline;}
	.st2{display:inline;fill:#FFFFFF;}
	.st3{fill:#FFFFFF;}
</style>
<g id="Layer_1">
	<g class="st0">
		<path class="st1" d="M-471.4,121.7c-0.1,2.3,0.9,4,2.6,5.2c1.6,1.2,3.9,1.7,6,0.9c1.2-0.5,2.1-1.4,2.7-2.4
			c1.3-2.3,2.1-4.7,2.1-7.4c-0.1-11.4,0-22.8,0-34.3c0-0.5,0-0.9,0-1.4c0-0.2-0.3-0.4-0.5-0.4c-1,0-2,0-3,0c-0.5,0-0.6-0.2-0.5-0.6
			c0-0.1,0-0.1,0-0.2c0-1.6,0-1.6,1.5-1.6c3.4,0,6.7,0,10.1,0c1.3,0,1.3,0,1.3,1.4c0,0.1,0,0.1,0,0.2c0.1,0.6-0.1,0.8-0.7,0.8
			c-0.9-0.1-1.7,0-2.6,0c-0.5,0-0.7,0.1-0.7,0.7c0,0.8,0,1.6,0,2.4c0,3.3,0,6.6,0,9.9c0,0.6,0.2,0.8,0.8,0.8c4.4,0,8.7,0,13.1,0
			c1.2,0,1.4-0.2,1.4-1.3c0-3.9,0-7.8,0-11.7c0-0.7-0.3-0.7-0.8-0.7c-0.7,0-1.3,0-2,0c-0.5,0-1.4,0-1.5-0.2c-0.2-0.6-0.1-1.3-0.1-2
			c0-0.1,0.4-0.3,0.6-0.3c1.3,0,2.7,0,4,0c2.5,0,5,0,7.5,0c0.6,0,0.8,0.2,0.8,0.8c0,1.6,0,1.6-1.7,1.6c-0.7,0-1.5,0-2.2,0.1
			c0,0.8-0.1,1.6-0.1,2.4c0,9.6,0,19.2,0,28.8c0,1,0,1,0.9,1c0.7,0,1.3,0,2,0c1.2,0,1.1-0.2,1.1,1.2c0,0.6-0.1,0.8-0.8,0.8
			c-3.8,0-7.5,0-11.3,0c-0.7,0-0.9-0.2-0.9-0.9c0.1-1.1,0-1.1,1.2-1.2c0.5,0,1.1,0,1.6,0c1.5,0,1.6-0.1,1.6-1.7c0-3.7,0-7.4,0-11.1
			c0-0.8,0-1.6,0-2.4c0-1-0.3-1.3-1.3-1.3c-2.5,0-5,0-7.5,0c-1.9,0-3.9,0-5.8,0c-0.7,0-0.8,0.2-0.8,0.8c0,3.8,0,7.5,0,11.3
			c0,1.9,0,3.8,0,5.6c0.1,3.7-1,7-2.9,10.1c-1.3,2.2-2.9,4-5.6,4.6c-0.6,0.1-1.3,0.2-1.9,0.2c-3.2,0.4-5.7-0.4-8-2.8
			c-1.1-1.2-1.8-2.7-1.8-4.5c0-0.8-0.1-1.6,0.2-2.3c0.5-1.3,1.1-2.6,2.7-2.9c0.5-0.7,1-0.3,1.5,0c1.2,0.8,2.1,1.7,2,3.3
			c0,1.6-1.3,2.5-2.8,1.8C-470.3,122.5-470.8,122.1-471.4,121.7z"/>
		<path class="st1" d="M-315.9,97.6c0,4.1,0.9,8.3,2.9,11.9c0.9,1.6,2.1,3.1,3.9,3.7c1.3,0.5,2.7,0.4,4,0.4c0.1,0,0.3,0,0.4,0
			c1.3-0.1,2.5-0.1,3.7-0.5c1.2-0.4,2.4-1,3-2.1c0.3-0.5,0.5-1.1,0.8-1.6c0.3-0.5,0.8-1,1.3-1.1c0.6-0.1,1.3,0.3,1.3,0.9
			c0,0.2-0.1,0.4-0.2,0.7c-1.8,3.8-5.9,6.3-10.1,6.5c-4.2,0.1-8.4-1.9-11.2-5.1c-2.8-3.2-4.3-7.3-4.7-11.6
			c-0.3-4.2,0.5-8.5,2.6-12.2c1.4-2.3,3.3-4.4,5.6-5.8c1.2-0.7,2.5-1.2,3.8-1.7c1.1-0.4,2.1-0.3,3.3-0.4c1.3,0,2.5,0.2,3.8,0.6
			c2.2,0.7,4.2,2,5.5,3.9c1.2,1.9,1.6,4.5,0.7,6.6c-0.4,1-1.3,2-2.4,2c-0.9,0-1.6-0.6-2.1-1.3c-0.6-0.8-0.9-1.9-0.6-2.9
			s1.5-1.7,2.4-1.2c0.2,0.1,0.5,0.2,0.6,0.1c0.2-0.1,0.1-0.4,0-0.6c-0.1-0.3-0.3-0.7-0.5-1c-1-1.9-2.8-3.2-4.9-3.7
			c-2.1-0.5-4.3-0.1-6.1,0.9c-2.3,1.2-4.1,3.3-5.2,5.7s-1.6,5-1.7,7.6C-315.9,96.7-315.9,97.1-315.9,97.6z"/>
		<path class="st1" d="M-253.7,104.5c-0.4,0.5-0.6,0.6-0.7,0.9c-0.1,0.3,0,0.7-0.5,0.6c-0.5,0-0.9,0-1.4-0.1c-0.1,0-0.2-0.3-0.2-0.5
			c0-1.3,1.1-3,2.2-3.5c1.2-0.5,2.7-0.2,4,0.8c0.5,0.4,0.8,0.2,1.3,0.1c0.7-0.2,0.9-1.2,1.9-0.9c0.6,0.2,1.1-0.5,1.9,0
			c0.5,0.3,1.2,0.2,1.7,0.7c0.2,0.2,0.7,0.1,1.1,0c0.9-0.3,1.7-0.9,2.6-0.9c0.8,0,1.8,0.3,2.4,0.7c1.1,0.8,1.9,1.8,1.9,3.4
			c-0.1,2.4,0,4.8,0,7.5c0.4-0.5,0.6-1,0.9-1.2c0.4-0.2,0.9-0.1,1.3-0.2c0.4,0,0.6,0.1,0.6,0.6c0,0.3,0,0.7-0.1,1
			c-0.4,1-1.1,1.9-2,2.3c-0.8,0.4-1.9,0.4-2.7,0.1c-0.9-0.3-1.7-1.1-2-2.1c-0.2-0.7-0.5-1.4-0.4-2.2c0.1-2.1,0-4.3,0-6.4
			c0-0.3,0.2-0.8-0.4-0.9c-0.9-0.1-1.5,0.2-1.6,0.8c0,0.4,0,0.8,0,1.2c0,3,0,6,0,9.1c0,0.4-0.1,0.6-0.5,0.6c-1.3,0-2.5-0.1-3.8-0.1
			c0-1.2-0.1-2.4-0.1-3.6c0-2.1,0-4.3,0-6.4c0-0.3,0-0.7,0-1c-0.1-0.5-0.9-0.7-1.2-0.3c-1,0.9-1.6,1.9-1.6,3.4c0.1,2.5,0,5,0,7.5
			c0,0.4-0.1,0.6-0.6,0.6c-1.1,0-2.2,0-3.2,0c-0.5,0-0.7-0.2-0.7-0.7c0-2,0-4,0-6C-253.7,107.9-253.7,106.4-253.7,104.5z"/>
		<path class="st1" d="M-411.1,103.6c1-1.6,3.3-2.4,5.1-1.6c0.5,0.2,0.9,0.5,1.4,0.5c0.6,0.1,1.2-0.3,1.8-0.5c1.3-0.5,3-0.5,4.1,0.4
			c1.5,1.1,1.9,3.2,1.9,5.1s-0.4,3.8,0.1,5.6c0.3-1,1.7-1.5,2.6-0.8c-0.1,1.5-1,3-2.4,3.6s-3.2,0.2-4-1.1c-0.5-0.7-0.6-1.6-0.7-2.5
			c-0.2-2-0.2-4,0-6c0.1-0.7,0.1-1.5-0.5-1.8c-0.5-0.4-1.3,0-1.7,0.5c-0.3,0.6-0.3,1.2-0.3,1.9c0,2.8,0,5.5,0,8.3
			c0,0.3,0,0.6-0.2,0.7c-0.2,0.1-0.4,0.1-0.6,0.1c-1,0-2,0-3,0c-0.2,0-0.4,0-0.5-0.1c-0.2-0.1-0.2-0.4-0.2-0.6c0-3.6,0-7.3,0-10.9
			c-1.1-0.1-2,0.8-2.4,1.7c-0.4,1-0.4,2.1-0.4,3.1c0,2,0,4.1,0,6.1c0,0.2,0,0.4-0.1,0.5c-0.1,0.1-0.3,0.1-0.5,0.1
			c-0.6,0-2.7,0.3-3.1-0.1c-0.5-0.4-0.2-2.4-0.2-3.1c0-2.5,0-4.9-0.1-7.4c0-0.3-0.2-0.8-0.5-0.7c-0.3,0.1-0.2,0.5-0.3,0.8
			c-0.2,0.7-1.3,0.7-1.7,0.2c-0.4-0.6-0.3-1.4,0.1-2.1c0.6-1.1,1.9-1.8,3.2-1.8C-413,101.8-411.8,102.5-411.1,103.6z"/>
		<path class="st1" d="M-202.5,128.4c0.2-0.2,0.4-0.4,0.6-0.6c1-1,1-1,2.2,0c0-2.7,0-5.3,0-7.9c0-1.3,0-2.7,0-4
			c0-0.7-0.1-0.7-0.8-0.4c-0.7,0.4-1.5,0.6-2.4,0.6c-1.4,0.1-2.3-0.5-3.3-1.4c-0.8-0.7-1.1-1.6-1.2-2.5c-0.1-3.4,0-6.7,0-10.1
			c0-0.5,0.2-0.5,0.6-0.5c1.1,0,2.1,0,3.2,0c0.6,0,0.6,0.3,0.6,0.7c0,3.2,0,6.3,0,9.5c0,0.4-0.1,0.8,0,1.2c0.1,0.7,1,1,1.6,0.6
			c0.5-0.4,1-0.9,1.4-1.4c0.2-0.3,0.2-0.7,0.2-1.1c0-2.9,0-5.8,0-8.7c0-0.6,0.2-0.8,0.8-0.8c0.9,0,1.9,0.1,2.8,0
			c0.8-0.1,0.8,0.3,0.8,0.9c0,5.6,0,11.1,0,16.7c0,2.1,0,4.2,0,6.2c0,1.1-0.2,2-0.8,2.9c-0.8,1.1-2,1.5-3.3,1.8
			c-0.6,0.1-1.4-0.3-2.1-0.6C-201.8,129.2-202.2,128.8-202.5,128.4z"/>
		<path class="st1" d="M-352,114.2c-0.1,0-0.2,0.1-0.3,0.2c-0.9,1-2.2,1.6-3.6,1.7c-1.3,0.1-2.7-0.4-3.6-1.3c-0.9-0.9-1-2.1-1-3.3
			c0-3.1,0-6.3,0-9.4c0-0.2,0-0.3,0.1-0.4c0.1-0.1,0.3-0.1,0.4-0.1c1.3,0,2.6,0,3.9,0.1c0,3.6,0.1,7.1,0.1,10.7
			c0,0.5,0.1,1.1,0.6,1.3c0.4,0.2,0.9-0.1,1.2-0.4c0.6-0.5,1.2-1.1,1.5-1.8c0.3-0.7,0.3-1.5,0.3-2.3c0-2.4,0-4.8,0-7.2
			c0-0.1,0-0.3,0.1-0.4c0.1-0.1,0.3-0.1,0.4-0.1c1.3,0,2.5,0.1,3.8,0.1c0.1,3.3,0.2,6.6,0.1,9.8c0,0.8,0,1.7,0.7,2.1
			c0.4,0.2,0.9,0.2,1.4,0c1.2-0.4,2.1-1.5,2.4-2.8c0.4-1.2,0.2-2.6-0.2-3.8c0-0.1-0.1-0.2-0.2-0.3c-0.1-0.1-0.3,0-0.4,0
			c-0.8,0.2-1.5-0.4-2-1c-0.6-0.7-1-1.6-0.9-2.4c0.1-0.9,0.7-1.8,1.6-1.9c0.4-0.1,0.9,0.1,1.3,0.3c1,0.5,1.6,1.6,2.1,2.6
			c0.7,1.7,1.1,3.6,1,5.5c-0.1,1.5-0.5,3-1.4,4.2c-0.9,1.2-2.3,2-3.7,2.2c-1.5,0.2-3-0.2-4.2-1c-0.4-0.3-0.8-0.6-1.2-0.8
			C-351.8,114.3-351.9,114.2-352,114.2z"/>
		<path class="st1" d="M-338.7,104.7c-0.1,0.2-0.3,0.4-0.4,0.7c-0.2,0.2-0.3,0.6-0.5,0.7c-0.4,0.1-0.9,0.1-1.4,0
			c-0.1,0-0.2-0.3-0.2-0.5c-0.1-1.2,0.9-2.9,2.1-3.3c0.6-0.2,1.2-0.8,1.9-0.4c0.9,0.4,2.1,0.3,2.5,1.5c0.1,0.4,0.2,0.4,0.5,0.2
			c0.2-0.2,0.5-0.1,0.7-0.3c0.8-0.8,1.7-0.9,2.8-1.2c0.9-0.2,1.7,0,2.5,0.2c1.7,0.6,2.4,2.1,2.5,3.7c0.2,2,0,4,0,6
			c0,0.4,0,0.3,0.6,0.2c0.7-0.1,1.3,0,2,0c0.1,0,0.2,0.2,0.2,0.2c-0.3,0.8-0.4,1.7-0.9,2.4c-0.8,1.2-2.1,1.5-3.5,1.3
			c-1.1-0.1-1.8-0.8-2.3-1.7c-0.4-0.7-0.6-1.4-0.6-2.2c0.1-2.2,0-4.4,0-6.6c0-0.6-0.2-1-0.6-1.1c-0.4-0.2-0.9-0.1-1.2,0.3
			c-0.3,0.3-0.7,0.5-1,0.8c-0.8,1-0.8,1.1-0.8,2.5c0,2.5,0,5,0,7.5c0,0.4-0.1,0.6-0.5,0.6c-1.3,0-2.5-0.1-3.8-0.1
			c0-1.2-0.1-2.4-0.1-3.6c0-2.5,0-5,0-7.4C-338.4,104.9-338.5,104.9-338.7,104.7z"/>
		<path class="st1" d="M-257.8,113.5c0.4-0.4,0.6-0.6,0.8-0.8c0.1-0.3,0-0.7,0.5-0.6c0.5,0,0.9,0,1.4,0.1c0.1,0,0.2,0.3,0.2,0.5
			c0,1.5-0.9,2.3-2,3.1c-1.2,0.7-2.4,0.6-3.4-0.1c-0.7-0.5-1.1-0.5-1.7-0.2c-3,1.8-6.1,0.1-7.3-2.1c-1.8-3.3-1.5-6,0.3-9.1
			c0.9-1.6,2.6-1.8,4-2.6c0.2-0.1,0.6-0.1,0.8,0.1c0.5,0.6,1.2,0.1,1.6,0.4c0.6,0.5,0.8-0.2,1.3-0.1c1,0.1,2,0.1,3,0
			c0.6,0,0.6,0.2,0.6,0.7C-257.8,106.1-257.8,109.6-257.8,113.5z M-262.2,109.2c0-1-0.1-2,0-3c0.1-0.8-0.4-1.3-0.9-1.6
			c-0.4-0.2-1.1-0.2-1.4,0c-0.4,0.4-0.6,1.1-0.9,1.6c-0.6,1.2-0.3,2.4-0.4,3.7c-0.1,1.3,0.6,2.2,1.2,3.1c0.2,0.3,0.6,1,1.1,0.6
			c0.5-0.4,1.5-0.3,1.4-1.4C-262.2,111.2-262.2,110.2-262.2,109.2z"/>
		<path class="st1" d="M-418.2,156.5c0-3,0-6,0-9.1c0-0.6-0.2-0.7-0.8-0.8c-0.6,0-1.6,0.4-1.6-0.5c0-0.6,1-0.3,1.5-0.3
			c1.7-0.1,3.5,0,5.2,0c0.1,0,0.3,0.2,0.4,0.3c-0.1,0.2-0.3,0.4-0.4,0.5c-0.4,0.1-0.8,0.1-1.2,0c-0.6-0.1-0.8,0.1-0.8,0.8
			c0,1.9,0,3.9,0,5.8c0,0.5,0.1,0.7,0.7,0.7c2.6,0,5.1,0,7.7,0c0.4,0,0.6-0.2,0.6-0.6c0-1.8,0-3.6,0-5.4c0-1-0.3-1.2-1.3-1.2
			c-0.3,0-0.7,0-1-0.1c-0.1,0-0.1-0.2-0.1-0.3c0-0.1,0.1-0.3,0.2-0.3c0.1-0.1,0.2,0,0.4,0c1.9,0,3.9,0,5.8,0c0.2,0,0.3,0.3,0.5,0.4
			c-0.1,0.1-0.2,0.3-0.4,0.3c-0.5,0.1-1.3-0.1-1.5,0.2c-0.3,0.5-0.1,1.1-0.1,1.7c0,4.6,0,9.1,0,13.7c0,0.9,0,0.9,1,0.9
			c0.3,0,0.7-0.1,0.8,0c0.2,0.2,0.3,0.6,0.2,0.9c-0.1,0.5-0.3,0-0.5,0c-1.9-0.1-3.9-0.1-5.8-0.1c-0.2,0-0.5,0.7-0.6,0
			c0-0.4-0.2-0.8,0.5-0.8c0.6,0,1.5,0.2,1.7-0.1c0.3-0.5,0.2-1.3,0.2-1.9c0-1.7,0-3.5,0-5.2c0-0.9-0.3-1.2-1.2-1.2c-2.3,0-4.7,0-7,0
			c-0.6,0-0.6,0.2-0.6,0.7c0,2.9,0,5.8,0,8.7c0,1.9-0.7,3.4-1.6,5c-0.8,1.3-1.9,1.9-3.2,2.4c-0.7,0.3-1.3,0.1-2.1,0
			c-1.1-0.1-2.2-0.3-3-1.1c-0.6-0.6-1-1.4-1.4-2.2c-0.3-0.8,0.7-2.7,1.5-2.9c0.4-0.1,1,0,1.3,0.2c0.6,0.4,0.9,1.1,0.8,1.9
			c0,0.1-0.2,0.3-0.4,0.3c-0.5,0-1.1,0.2-1.4,0c-0.8-0.7-0.7-0.1-0.6,0.4c0.3,1.4,1.6,2.4,3,2.5c0.2,0,0.4,0,0.6,0
			c0.8,0,1.7,0.1,2.2-0.5c0.6-0.6,1.1-1.4,1.4-2.2c0.3-1,0.4-2.2,0.4-3.2C-418.2,161.9-418.2,159.2-418.2,156.5z"/>
		<path class="st1" d="M-370.6,177.8c0.7,0,1.4-0.1,2,0c0.9,0.2,1.4-0.3,1.8-0.9c0.2-0.4,0.7-0.8,0.2-1.4c-0.4-0.6-0.7-1-1.5-0.5
			c-0.1,0-0.3-0.2-0.5-0.4c0.2-0.2,0.5-0.5,0.7-0.7c0.4,0.6,0.8,0.3,1.1-0.1c0.1,0.1,0.3,0.3,0.4,0.4c0.8,0.5,1.2,1.7,1,2.8
			c-0.1,0.5-1.3,1.6-1.8,1.6c-0.6,0-1.2,0-1.8,0c-0.4,0-0.6,0.5-0.3,0.6c1.1,0.6,0.4,1.8,1.1,2.6c0.1,0.1-0.2,0.6-0.3,0.9
			c-0.4,1.2-0.6,2.5-0.5,3.8c0.2,1.9,0,2.7-0.8,4.2c-0.9,1.6-2.5,2.3-4.2,2.7c-0.4,0.1-1-0.4-1.4-0.3c-0.5,0.1-0.8,0.1-1.3,0
			c-1.8-0.3-3-1.4-3.8-2.9c-0.3-0.4,0-0.3,0.3-0.4c0.6-0.1,0.9,0.3,1.2,0.6c0.9,1,1.9,1.8,3.2,2c0.2,0,0.4,0.3,0.5,0.2
			c1-0.6,2.3-0.9,3-2c0.6-1,1.2-2,1-3.2c-0.1-0.4-0.2-0.3-0.5-0.1c-1.1,0.6-2.4,0.6-3.6,0.9c-0.9,0.2-2.1,0-3-0.4
			c-1.8-0.8-3.7-1.7-4.4-3.9c-0.3-1.1-0.4-2.3-0.1-3.3c0.3-0.9,0.4-2.2,1.8-2.4c1.2-1.3,2.7-2,4.4-2.4c0.4-0.1,0.5-0.4,0.2-1
			c-0.3-0.5-0.1-1.3-0.4-2c-0.5-1.3,0.9-4,2.1-4.5c1.9-0.9,4.6,0.9,4.7,3c0,0.9,0.1,1.8-0.5,2.4c-0.8,0.8-1.8,1.4-2.9,1.8
			c-0.3,0.1-0.6,0.2-0.9,0.4c-0.1,0.1-0.3,0.4-0.2,0.5c0.3,0.5,0.5,1,0.9,1.4c0.1,0.1,0.5,0.1,0.7,0.1
			C-372.2,177.8-371.4,177.8-370.6,177.8z M-375.2,178.5c-0.6,0.6-1,1-1.4,1.4c-0.2,0.3,0,0.4,0.6,0.7c0.6,0.4,1.4,0.6,1.6,1.5
			c0.1,0.5-0.3,1.3-0.8,1.2c-0.9-0.1-1.7-0.3-2.2-1.2c-0.6-1.1-0.5-2.1,0.1-3.1c0.4-0.6,1-1,1.6-1.4c0.6-0.3,0.4-0.6,0-0.9
			c-0.3-0.2-0.7-0.4-1-0.3c-1.4,0.3-3.4,3-3.5,4.5c-0.2,2,0.5,3.6,2,5c0.9,0.8,2.1,0.7,3.1,1.3c1.1-0.6,2.4-0.6,3.4-1.4
			c0.3-0.3,0.1-0.4,0.1-0.7c-0.3-2-1.5-3.5-2.5-5.2C-374.5,179.6-374.8,179.1-375.2,178.5z M-375.9,171.8c0,0.6,0,1,0,1.4
			c0,0.1,0,0.3,0,0.4c0.2,0.7,0.9,1.2,1.6,1c0.9-0.4,1.9-0.7,2.6-1.5c0.5-0.7,0.1-1.4,0.3-2.1c0-0.1,0-0.1,0-0.2
			c-0.1-1-1.8-2-2.8-1.6C-375.6,169.6-376.2,170.5-375.9,171.8z M-369.4,182.3c0-1.9-0.8-3.2-2.2-3.7c-0.3-0.1-0.6,0.1-0.9,0.1
			c0.1,0.2,0.1,0.5,0.2,0.7c0.7,1.1,1.4,2.2,2.1,3.3c0.1,0.1,0.2,0.2,0.3,0.2c0.2,0,0.5-0.1,0.5-0.2
			C-369.4,182.6-369.4,182.3-369.4,182.3z"/>
		<path class="st1" d="M-376.3,96.5c0,1.5,0,3,0,4.4c0,0.5,0.2,0.7,0.7,0.7c0.4,0,0.8,0,1.2,0c0.4,0,0.6,0.2,0.5,0.6
			c0,0.1,0,0.1,0,0.2c0,1.6,0,1.6-1.5,1.6c-0.1,0-0.3,0-0.4,0c-0.5,0-0.5,0.2-0.5,0.6c0,2.6,0,5.2,0,7.8c0,0.1,0.2,0.2,0.3,0.3
			c0-0.1,0.1-0.2,0.1-0.4c0-0.5,0.5-0.4,0.7-0.4c0.4,0,0.8,0,1.2,0.1c0.1,0,0.1,0.2,0.1,0.3c0.2,1.6-0.9,3.4-3.1,3.6
			c-1.8,0.1-2.7-0.9-3.5-2.1c-0.2-0.3-0.2-0.7-0.2-1.1c0-2.7,0-5.4,0-8c0-0.7-0.1-1.1-0.9-0.9c-0.6,0.1-0.9-0.1-0.8-0.7
			c0-0.3,0-0.7,0-1c-0.1-0.5,0.1-0.8,0.7-0.7c0.8,0.2,1-0.2,1-1c0-2.8,0-5.6,0-8.4c0-0.5,0.2-0.7,0.7-0.7c1.2,0,2.4,0,3.6,0.1
			c0.1,1.2,0.1,2.4,0.2,3.6C-376.3,95.6-376.3,96-376.3,96.5z"/>
		<path class="st1" d="M-349.7,187.8c-1.3,0-2.7,0-4,0c-0.1,0-0.3-0.2-0.4-0.3c0.1-0.2,0.3-0.5,0.4-0.5c2-0.2,1.9-0.2,2-2.2
			c0.1-1.4-0.3-2.2-1.8-2.7c-2.2-0.8-3.4-3.9-3.5-5.5c0-0.8,0-1.7,0.2-2.5c0.5-2.3,2.1-3.7,4.2-4.6c0.3-0.2,0.7-0.3,0.8,0.1
			c0.1,0.3,0.3,0.8-0.3,1c-1.1,0.3-1.7,1.1-2.5,1.8c-0.7,0.6-1.2,1.3-1.2,2.3c0,0.8-0.8,1.5,0,2.3c0,1.5,0.7,2.6,1.7,3.5
			c0.4,0.3,0.8,0.6,1.3,0.9c0.7,0.3,1.1,0.1,1.1-0.7c0-1.3,0-2.7,0-4c0-0.5-0.2-1.2,0-1.4c0.6-0.5-0.2-0.8,0-1.1
			c0.1-0.1,0.3-0.3,0.4-0.3c0.7,0.2,1,1.1,1.9,0.8c0,0.1,0.1,0.2,0,0.3c-0.6,1.1-0.2,2.2-0.3,3.3c-0.1,1.1,0,2.3,0,3.4
			c0,0.6,0.3,0.7,0.7,0.6c0.7-0.2,1.4-0.4,2.2-0.6c0.2-0.1,0.5-0.2,0.7-0.1c0.1,0,0.4,0.2,0.4,0.3c0,0.1-0.1,0.5-0.2,0.5
			c-0.9,0.1-1.6,1-2.7,0.9c-0.8-0.1-1.1,0.3-1.1,1.2c0,0.5,0,1.1,0,1.6c0,0.9,0.4,1.3,1.2,1.1c1-0.2,2.1-0.2,3.1-0.4
			c0.7-0.1,1.5-0.7,2.1-1.2c1.2-1.1,1.9-2.5,2.5-4c0.2-0.6,0.3-1.2,0.4-1.8c0.1-0.4,0.2-0.9,0.2-1.4c-0.1-1.4-0.6-2.7-1-4
			c0-0.1-0.1-0.3-0.1-0.3c-0.8-0.8-1.6-1.5-2.3-2.3c-0.7-0.9-1.8-0.8-2.7-1.4c-0.4-0.3-1.1-0.2-1.6-0.5c-0.5-0.2-0.9-0.5-1.2-0.9
			c-0.5-0.7,0.3-0.9,0.6-1.2c0.4-0.6,0.8-1.1,1.3-1.7c0.3-0.3,0.5-0.3,0.8,0c0.3,0.2,0.4,0.4,0.1,0.7c-0.4,0.5-0.8,1-1.2,1.5
			c-0.2,0.3-0.3,0.6,0.2,0.7c0.5,0.2,1.1,0.4,1.6,0.4c2,0,3.5,1,4.9,2.3c1.3,1.1,2.2,2.5,2.6,4.2c0,0.1,0.2,0.2,0.2,0.3
			c-0.1,1.8,0.2,3.6-0.3,5.5c-0.5,1.6-1.6,2.7-2.4,4c-0.3,0.5-3.7,2.2-4.3,2.3c-1,0.1-2,0-3,0C-348.6,187.8-349.1,187.8-349.7,187.8
			z"/>
		<path class="st1" d="M-272.1,111.6c0.1,0.1,0.2,0.2,0.3,0.3c0.4,0.4,0.7,0.9,1.1,1.3c-0.5,0.5-0.9,1.2-1.5,1.6
			c-1.7,1.1-3.7,1.5-5.7,1.2c-0.7-0.1-1.5-0.5-2-0.9c-0.8-0.7-1.4-1.5-2.1-2.3c-0.8-1-1-2.2-1.2-3.3c-0.2-0.9,0.1-1.9,0.4-2.8
			c0.2-0.8,0.8-1.4,1.2-2.1c0-0.1,0.1-0.1,0.1-0.1c0.7-0.7,1.4-1.4,2.2-2c0.8-0.5,1.9-0.2,2.7-0.8c1.5,0.3,3,0.4,4.1,1.7
			c0.7,0.9,0.9,2.3,0.5,3.7c-0.6,2.2-2.4,3.2-4.2,3.8c-0.2,0.1-0.5,0.1-0.7,0.2c-0.8,0.3-0.8,0.3-0.4,1.1c0.2,0.5,0.2,1.3,0.9,1.4
			c1,0.2,2,0.1,2.8-0.6C-273,112.6-272.5,112.1-272.1,111.6z M-273.9,105.8c0-0.9-0.6-1.6-1.4-1.8c-0.3-0.1-1.1,0.6-1.5,1.1
			c-0.7,0.7-0.5,1.7-0.9,2.5c-0.2,0.5-0.4,0.9,0,1.2c0.2,0.1,0.7-0.1,1.1-0.2c0.4-0.1,0.8-0.3,1.2-0.6
			C-274.7,107.5-273.8,107-273.9,105.8z"/>
		<path class="st1" d="M-383.3,111.6c0.2,0.2,0.3,0.3,0.4,0.4c1.3,1.3,1.4,1.5-0.2,2.7c-2.2,1.6-4.7,2-7.2,0.7c-2-1-3.5-2.6-3.6-5.1
			c-0.2-2.7-0.3-3.4,0.8-5.1c1.1-1.6,2.3-3.1,4.5-3.3c0.6,0,1.2-0.5,1.6-0.3c0.5,0.3,1,0.2,1.5,0.4c2,0.4,3.3,2.8,2.6,4.8
			c-0.5,1.4-1.4,2.5-2.8,3.2c-0.6,0.3-1.3,0.5-1.8,1c-0.4,0.4-1.3-0.2-1.2,0.6c0.1,0.6,0.5,1.3,0.8,1.9c0.1,0.1,0.3,0.1,0.5,0.2
			c1.3,0.1,2.4-0.2,3.3-1.2C-383.9,112.2-383.6,111.9-383.3,111.6z M-388.9,108.8c0.2,0,0.4,0,0.5,0c1.6-0.4,2.8-1.4,3.5-2.9
			c0.1-0.2,0-0.5-0.1-0.7c-0.2-0.3-0.4-0.5-0.7-0.7c-1-0.7-1.7-0.4-2.5,0.6c-0.8,1-0.4,2.4-1,3.4
			C-389.2,108.5-389,108.7-388.9,108.8z"/>
		<path class="st1" d="M-222.1,111.6c1.8,1.8,1.8,1.8-0.1,3.3c-0.7,0.5-1.5,0.9-2.3,1.1c-3,0.8-6.9-1.3-7.8-4.4
			c-1-3.1-0.4-5.9,2-8.3c0.8-0.8,1.9-1.1,3-1.5c1.9-0.7,3.3,0.2,4.8,0.9c0.5,0.2,1,0.9,1.1,1.4c0.7,2.3-0.2,3.9-2.2,5.5
			c-0.9,0.7-1.9,1.1-2.8,1.4c-0.7,0.3-0.6,0.7-0.5,1c0.4,1.6,2.1,2,3.5,1C-223.1,112.8-222.6,112.2-222.1,111.6z M-227.5,107.7
			c0,1.3,0.2,1.4,1.1,1c0.5-0.2,0.9-0.4,1.3-0.7c0.9-0.6,1.5-1.3,1.6-2.5c0.1-1-0.8-1.1-1.3-1.4c-0.5-0.3-1-0.1-1.4,0.3
			C-227.1,105.4-227.3,106.6-227.5,107.7z"/>
		<path class="st1" d="M-373.1,109.2c0-0.3,0-0.6,0-0.8c0.1-1.7,0.6-3.3,1.7-4.6c3.2-3.9,8.3-1.8,9.7,2.6c0.7,2.3,0.3,5-1,7
			c-0.7,1-1.6,2-2.7,2.4c-2,0.8-4.4,0.1-5.8-1.5C-372.5,113-373.1,111.1-373.1,109.2z M-368.2,108.8c-0.2,1.3,0.3,2.5,0.8,3.7
			c0.3,0.7,1.3,1,1.9,0.6c1.5-1,2.4-3.6,2.1-4.8c-0.2-0.9-0.7-1.7-1.2-2.5c-1-1.9-1.6-2-2.9-0.3c-0.2,0.2-0.2,0.4-0.3,0.7
			C-368.2,107-368.3,107.9-368.2,108.8z"/>
		<path class="st1" d="M-429.9,109.1c-0.1-2.6,0.8-4.6,2.5-6.2c0.9-0.8,2.8-1,4.1-1c1.5,0.1,2.5,0.7,3.3,1.8c1,1.4,1.8,2.9,1.8,4.7
			c0,2.2-0.6,4.1-2,5.8c-1,1.2-2,1.8-3.4,1.8c-0.7,0-1.5,0.1-2.2-0.1c-2-0.6-3-2.2-3.7-4C-429.9,110.9-430,109.9-429.9,109.1z
			 M-420.2,108.8c-0.1-0.4-0.4-0.9-0.4-1.5c0-1.3-0.9-2-1.7-2.7c-0.4-0.4-0.8-0.3-1.2,0c-0.6,0.5-1,1.1-1.4,2.6
			c-0.5,1.9-0.2,3.7,0.7,5.4c0.3,0.7,1.5,0.8,2,0.3c0.5-0.5,1.2-1,1.5-1.6C-420.4,110.7-420.4,109.8-420.2,108.8z"/>
		<path class="st1" d="M-293.4,104.8c-0.3,0.6-0.5,1.2-1.4,1.2c-1.2,0-1.6-0.4-1.1-1.5c0.3-0.7,0.6-1.4,1.2-1.9
			c0.6-0.5,1.4-0.9,2.2-1c0.5-0.1,1.2,0.2,1.8,0.5c0.5,0.3,0.8,0.3,1.3,0.1c0.6-0.3,1.3-0.6,1.9-0.6c0.9,0.1,1.9,0.3,2.7,0.8
			c0.6,0.4,1.2,1,1.5,1.8c0.6,1.5,0.4,2.6-1,3.3c-0.3,0.2-0.9,0.2-1.1,0.1c-0.6-0.4-1.4-0.4-1.7-1.4c-0.2-0.6-0.7-1.2-0.7-1.9
			c0-0.1-0.1-0.2-0.2-0.3c-0.1,0.1-0.2,0.2-0.3,0.3c-0.5,0.3-0.3,0.9-0.3,1.3c0,3.2,0,6.3,0,9.5c0,1,0,1-0.9,1c-1.1,0-2.3,0-3.4-0.1
			c0-1.1-0.1-2.2-0.1-3.4c0-2.6,0-5.1,0-7.7C-293.2,104.9-293.3,104.9-293.4,104.8z"/>
		<path class="st1" d="M-218.5,104.8c-0.1,0.2-0.2,0.4-0.1,0.5c0,0.5-0.1,0.8-0.6,0.7c-0.3,0-0.7,0-1,0c-0.1,0-0.3-0.1-0.3-0.2
			c0-0.7-0.2-1.6,0.1-2.1c0.5-0.7,1.1-1.5,2.2-1.8c0.8-0.2,1.4-0.4,2.1,0.1c0.9,0.6,1.9,0,2.9,0c0.4,0,0.8-0.6,1.2-0.3
			c0.9,0.5,2,0.3,2.7,1.2c0.4,0.4,0.8,0.8,1,1.3c0.3,0.9,0.3,1.9-0.3,2.8c-0.4,0.5-0.9,0.8-1.6,0.8c-0.3,0-0.7-0.1-0.9-0.3
			c-0.8-0.8-2-1.5-1.6-3c0-0.1-0.1-0.3-0.2-0.3c-0.2,0-0.4,0-0.5,0.1c-0.6,0.3-0.5,0.9-0.5,1.4c0,2.9,0,5.8,0,8.6c0,0.5,0,0.9,0,1.4
			c0,0.5-0.2,0.5-0.6,0.5c-1.1,0-2.1,0-3.2,0c-0.6,0-0.6-0.3-0.6-0.7c0-3.1,0-6.2,0-9.3c0-0.4,0-0.9-0.1-1.3
			C-218.4,104.8-218.4,104.8-218.5,104.8z"/>
		<path class="st1" d="M-299.7,155.2c0-2.9,1-5.3,3.1-7.2c1.3-1.3,3-1.9,4.8-2c0.5,0,1.1,0,1.6,0c1.8-0.1,3.1,0.9,4.1,2.1
			c0.8,0.9,0.5,2.1,0.5,3.2c0,0.5-1,1.2-1.5,1.1c-0.5,0-1.2-0.7-1.3-1.3c-0.2-0.6,0.3-1.4,1-1.6c0.5-0.1,0.8-0.3,0.6-0.5
			c-0.6-0.8-1.3-1.5-2.2-1.8c-0.9-0.4-1.8-0.9-2.7-0.1c-2,0.2-3.1,1.4-4.2,2.9c-0.4,0.6-0.3,1.4-0.9,1.9c-0.6,3.1-0.7,6.1,1.2,8.9
			c0.5,0.8,1,1.5,1.9,1.8c0.9,0.4,1.6,1.4,2.8,0.8c0.5-0.3,0.6,0.6,1.2,0.2c0.9-0.6,2.1-0.9,2.9-1.7c0.3-0.4,0.6-0.9,1.3-0.8
			c0.2,0,0.4,0,0.5,0.2c0.1,0.1,0.1,0.4,0,0.5c-1.1,1.5-2.8,2.2-4.5,2.8c-0.2,0.1-0.5-0.1-0.7-0.1c-0.4-0.1-0.8-0.2-1.1-0.2
			c-2.7,0.3-4.6-0.7-6.1-2.9c-0.7-1.1-1.2-2.2-1.7-3.3C-299.8,156.9-299.4,156-299.7,155.2z"/>
		<path class="st1" d="M-326.7,155.2c0-2.4,0-4.8,0-7.3c0-0.6-0.1-0.9-0.7-0.8c-0.3,0-0.5,0-0.8,0c-0.7,0-0.5-0.5-0.5-0.8
			c0-0.4-0.1-0.8,0.5-0.8c2.1,0,4.2,0,6.2,0c0.5,0,0.5,0.4,0.4,0.7c-0.1,0.3,0.3,0.9-0.4,0.9c-0.7,0.1-1.3,0.1-2,0.1
			c0,0.7-0.1,1.5-0.1,2.2c0,4.2,0,8.5,0,12.7c0,1.1,0,1.1,1,1.1c0.3,0,0.7-0.1,1,0c0.2,0,0.3,0.3,0.4,0.5c0.1,0.3,0.1,0.7-0.4,0.7
			c-2.1,0-4.3,0-6.4,0c-0.1,0-0.3-0.4-0.3-0.5c0-0.2,0.2-0.4,0.3-0.6c0,0,0.1,0,0.2,0c0.5,0,1.2,0.1,1.3-0.1c0.3-0.4,0.2-1,0.2-1.5
			C-326.7,159.5-326.7,157.3-326.7,155.2z"/>
		<path class="st1" d="M-344.8,154.8c0,2.5,0,5,0,7.4c0,0.6,0,0.7,0.6,0.3c0.4-0.3,0.7,0.1,0.6,0.6c-0.1,0.2-0.1,0.5-0.3,0.7
			c-0.4,0.2-1.1,0.6-1.2,0.5c-0.4-0.4-0.8,0.6-1.1-0.1c-0.3-0.6-0.8-0.6-1.2-0.1c-0.4-0.4-0.5,0.6-1.2,0.2c-0.5-0.3-1.5,0.2-2-0.6
			c-0.4-0.5-0.8-0.9-1.1-1.6c-0.5-1.1-0.3-2,0.1-2.9c0.4-0.7,1-1.4,1.7-1.9c0.5-0.3,1.3-0.2,1.9-0.1c0.7,0,0.8-0.2,0.7-0.8
			c0-2.7,0-5.4,0-8.1c0-2,1.4-3,3.3-2.2c0.2,0.1,0.5,0.3,0.7,0.4c-0.3,0.2-0.5,0.8-1,0.5c-0.5-0.4-0.6-0.3-0.6,0.3
			C-344.8,149.8-344.8,152.3-344.8,154.8z M-347.3,160.9c0-0.5,0-1.1,0-1.6c0-0.5-0.3-0.8-0.8-0.9c-0.6-0.1-0.9,0.2-1.1,0.6
			c-0.7,1.2-0.3,3,0.7,3.9c0.5,0.4,1.2,0.2,1.3-0.4C-347.2,162-347.3,161.5-347.3,160.9z"/>
		<path class="st1" d="M-393.6,158.3c-0.4,0.3-0.6,0.5-0.7,0.5c-0.4-0.2-0.6,0.7-0.9,0.2c-0.1-0.2,0.1-0.8,0.3-1
			c0.7-0.9,1.8-1,2.7-0.3c0.4,0.4,0.6,0.3,1.2,0.1c0.9-0.5,1.8-1,2.9-0.2c0.2,0.1,0.7-0.1,1.1-0.2c1.2-0.3,2.3-0.3,3.2,0.8
			c0.3,0.3,0.4,0.6,0.4,1c0,1,0,2,0,3c0,0.6,0.1,0.7,0.6,0.2c0.1-0.1,0.4-0.1,0.6,0c0.2,0,0.6,0,0.3,0.4c-0.2,0.3-0.2,0.6-0.4,0.8
			c-0.2,0.3-0.6,0.5-0.8,0.7c-0.4-0.7-0.9,0-1.2-0.1c-0.7-0.2-1.3-0.8-1.3-1.6c-0.1-1.1,0-2.3,0-3.4c0-0.3,0.3-0.8-0.4-0.9
			c-0.6,0-1.1,0.3-1.2,0.8c0,0.4,0,0.8,0,1.2c0,1,0,2,0,3c0,0.6-0.2,0.7-0.7,0.6c-0.3,0-0.5,0-0.8,0c-0.5,0-0.5-0.2-0.5-0.6
			c0-1.5,0-3,0-4.4c0-0.7-0.1-0.7-0.8-0.4c-0.8,0.4-1.2,1-1.2,1.9c0,1,0,2,0,3c0,0.5-0.2,0.6-0.6,0.5c-0.3,0-0.6-0.1-0.8,0
			c-0.3,0.2-0.6,0.7-0.6-0.2c0-1.5,0-3.1,0-4.6C-393.6,159-393.6,158.8-393.6,158.3z"/>
		<path class="st1" d="M-260.2,161.1c0-0.6,0-1.2,0-1.8c0.1-0.8-0.1-0.9-0.8-0.4c-0.1,0.1-0.4,0.1-0.6,0c-0.1-0.1-0.3-0.3-0.3-0.4
			c0.3-1.1,2-1.6,2.9-0.8c0.6,0.5,0.9,0.6,1.4,0c0.7-0.7,1.6-0.5,2.4-0.2c0.5,0.2,0.9,0.2,1.4,0c2-0.7,3.5,0.4,3.5,2.5
			c0,0.8,0,1.6,0,2.4c0,0.8,0.3,0.4,0.6,0.2c0.1-0.1,0.5,0.1,0.6,0.3c0.2,0.6-0.3,1-0.6,1.3c-0.3,0.3-0.5,0.3-1,0.2
			c-0.5-0.1-1.2-0.1-1.5-0.4c-0.4-0.5-0.6-1.1-0.5-1.8c0.1-0.9,0-1.9,0-2.8c0-0.3,0.2-0.8-0.5-0.9c-0.6,0-1,0.2-1.1,0.8
			c-0.1,0.4,0,0.8,0,1.2c0,0.8,0,1.6,0,2.4c0,0.4,0,1-0.2,1.1c-0.5,0.2-1,0.1-1.6,0.1c-0.1,0-0.3-0.4-0.3-0.6c0-1.5,0-3,0-4.4
			c0-0.6-0.2-0.7-0.7-0.4c-0.8,0.4-1.3,0.9-1.3,1.8c0,1,0,2,0,3c0,0.5-0.2,0.7-0.7,0.7c-0.3,0-0.5,0-0.8,0c-0.4,0-0.6-0.2-0.6-0.6
			C-260.2,162.7-260.2,161.9-260.2,161.1z"/>
		<path class="st1" d="M-367.4,164.1c-0.6,0.1-1.3-0.3-1.8,0.4c-0.1-0.8-0.2-1.6-0.2-2.3c0-1.1,0-2.3,0-3.4c0-0.1-0.5-0.3-0.6-0.3
			c-0.7,0.7-1.6,1.3-1.4,2.6c0.1,1,0,2,0,3c-0.5,0-1.1,0-1.6,0c0-1.7,0-3.4,0-5c0-0.2-0.2-0.4-0.3-0.6c-0.2,0.1-0.5,0.3-0.5,0.4
			c-0.1,0.9-1-0.5-1,0.4c-0.1-0.1-0.2-0.2-0.2-0.3c0.2-1.5,1.8-2.3,2.9-1.3c0.6,0.6,1,0.3,1.5,0c0.8-0.5,1.6-0.6,2.5-0.1
			c0.3,0.1,0.7,0,1.1,0c0.7-0.1,1.4-0.3,2.1-0.2c1.1,0.1,1.5,0.8,1.5,2c0,1,0,2,0,3c0,0.8,0.3,0.4,0.6,0.2c0.2-0.1,0.5-0.1,0.8,0
			c0.1,0,0.2,0.2,0.2,0.3c0,0.9-0.7,1.6-1.7,1.3c-0.5-0.1-0.9,0.8-1.4-0.1c-0.4-0.7-0.9-1.4-0.8-2.3c0-0.9,0-1.7,0-2.6
			c0-0.3,0-0.7-0.5-0.6c-0.3,0-0.6-0.1-0.8,0.4c-0.1,0.5-0.4,0.9-0.4,1.4C-367.4,161.5-367.4,162.8-367.4,164.1z"/>
		<path class="st1" d="M-263.4,163.4c0.7-0.6,1-1.2,1.7-1c0.1,0,0.2,0.1,0.3,0.2c-0.5,0.4-0.4,1.2-1.2,1.4c-0.5,0.2-0.9,0.5-1.5,0
			c-0.4-0.3-1-0.5-1.7-0.1c-1.6,0.9-3.5,0-4.1-1.8c-0.6-2-0.1-3.7,1.6-4.8c0.2-0.2,0.6-0.2,0.9-0.2c0.6,0,1.3,0.4,1.8,0.2
			c0.7-0.4,1.3-0.1,1.9-0.2c0.6-0.1,0.7,0.1,0.3,0.6c-0.1,0.1,0,0.4,0,0.6C-263.4,160-263.4,161.6-263.4,163.4z M-265,160.9
			c0-0.4,0-0.8,0-1.2c-0.1-0.6-1-1.3-1.5-1.3c-0.7,0.1-1,0.5-0.9,1.2c0,0.2,0,0.4,0,0.6c-0.2,0.8-0.1,1.9,0.4,2.3
			c0.3,0.3,0.6,0.9,1.1,0.6c0.4-0.3,1-0.6,1-1.3C-265,161.5-265,161.2-265,160.9z"/>
		<path class="st1" d="M-357.7,157.1c0.4-0.3,0.7,0.7,1.4,0.2c0.4-0.3,1.2-0.1,1.8-0.1c0.6,0,0.2,0.3,0.2,0.5
			c-0.1,1.7-0.1,3.5-0.1,5.2c0,0.5,0.3,0.2,0.5,0c0.4-0.5,0.8-0.7,1.4-0.5c-0.2,0.5-0.4,1.2-0.7,1.3c-0.5,0.2-1,1.1-1.8,0.3
			c-0.7-0.6-0.9-0.5-1.8,0c-1.6,0.7-3.4-0.1-3.9-1.8c-0.6-2-0.1-3.6,1.6-4.8C-359,157.2-358.4,157.2-357.7,157.1z M-356.2,161
			c0.1-0.9,0.1-1.8-0.8-2.4c-0.5-0.4-1.1-0.3-1.5,0.2c-0.8,1.2-0.4,3.3,0.7,4.2c0.2,0.1,0.5,0.1,0.7,0
			C-356.3,162.6-355.9,161.8-356.2,161z"/>
		<path class="st1" d="M-290.8,183.6c0.7,0.7,1.4,1.2,1.3,2.4c-0.1,0.8-0.2,1.2-1.1,1.6c-1.8,0.7-3.4,0.3-4.3-1.1
			c-0.4-0.6-0.3-0.9,0.2-1.3c0.3-0.3,0.7-0.5,1.1-0.7c-0.3-0.6-1.2-0.8-1.2-1.7c0-1.2,0.1-1.7,1.3-2c0.9-0.2,1.8-0.1,2.7,0
			c0.7,0.1,0.9,0.8,1.2,1.3c0.3,0.5-0.4,0.7-0.6,1.1C-290.4,183.2-290.6,183.4-290.8,183.6z M-292.7,184.8c-0.1,1.5,0,1.7,0.9,1.8
			c0.1,0,0.3,0,0.4-0.1c0,0,0-0.2,0-0.3C-291.8,185.8-292.2,185.4-292.7,184.8z M-292.5,182.8c0.3-0.3,0.5-0.4,0.5-0.5
			c-0.1-0.2-0.2-0.4-0.4-0.5c0,0-0.4,0.2-0.4,0.3C-292.8,182.3-292.7,182.5-292.5,182.8z"/>
		<path class="st1" d="M-298.1,186.6c0.6-0.3,1-0.6,1.4-0.8c0.1-0.1,0.4,0,0.5,0.1c0.1,0.1,0.1,0.4,0,0.5c-0.2,0.3-0.5,0.5-0.7,0.7
			c-0.5,0.7-1.2,0.8-1.9,0.5c-0.7-0.3-1.4-0.8-1.3-1.8c0-1,0-2,0-3c0-0.4,0-0.8,0-1.2c0-0.5-1.1-0.1-0.8-0.8
			c0.1-0.3,0.6-0.4,0.7-0.7c0.1-0.3,0-0.8,0-1.2c0-1.2,0-2.4,0-3.6c0-0.2,0.3-0.4,0.4-0.5c0.4-0.1,0.8,0,1.2,0
			c1-0.2,0.4,0.4,0.4,0.8c-0.1,1.4,0,2.8,0,4.2c0,0.5,0.2,0.7,0.7,0.7c0.2,0,0.4-0.1,0.6,0c0.1,0.1,0.3,0.2,0.3,0.4
			c0,0.1-0.1,0.4-0.3,0.4c-1.3,0.5-1.3,0.5-1.3,1.7C-298.1,184.2-298.1,185.3-298.1,186.6z"/>
		<path class="st1" d="M-320.3,187.8c-0.9,0.1-1.6-0.3-2.2-0.9c-0.8-0.8-0.7-1.3,0.2-2.1c0.4-0.4,1.2-0.8-0.1-1.2
			c-0.3-0.1-0.6-0.9-0.5-1.3c0-0.4,0.4-0.9,0.8-1.2c1-0.8,2.2-0.7,3.3-0.5c0.4,0.1,0.9,0.8,1,1.3c0.2,0.6,0.1,1.3-0.8,1.5
			c-0.5,0.1-0.1,0.3-0.1,0.5c0.2,0.5,0.8,0.2,1,0.7c0.7,1.5,0,2.9-1.7,3.2C-319.8,187.9-320.1,187.8-320.3,187.8z M-320.8,185.4
			c0.1,0,0.1,0,0.2,0c0-0.1-0.1-0.2-0.1-0.3c0,0-0.2,0-0.2,0.1c0.1,0.1,0.1,0.2,1.6,1.2c0-0.5-0.6-1.1-1-1c-0.1,0-0.2,0.1-0.2,0.2
			c-0.2,0.7,0.2,1.1,0.8,1C-319.7,186.6-319.5,186.5-320.8,185.4z M-319.8,182.7c-0.2-0.4-0.4-0.8-0.7-1.3c-0.1,0.1-0.2,0.2-0.3,0.3
			c-0.2,0.2-0.4,0.3-0.1,0.6c0.3,0.2,0.6,0.4,0.9,0.7C-319.9,182.9-319.9,182.8-319.8,182.7z"/>
		<path class="st1" d="M-326.7,180.6c0.5,0,1.1-0.1,1.6,0.6c0.6,0.7,0.6,1.9-0.2,2.2c-1.3,0.4-0.1,0.8,0,0.9c1.3,1,1.4,2.2,0.2,3
			c-1.4,1-2.9,0.9-4.2-0.2c-1-0.8-0.9-1.3,0.1-2.2c0.3-0.3,0.7-0.5,0.2-1.1c-0.9-1.1-0.8-1.2-0.7-1.7c0.3-1.1,1.1-1.4,2.2-1.5
			C-327.3,180.6-327.1,180.6-326.7,180.6z M-327.3,185.1c-0.1,0.5-0.2,0.7-0.2,0.9c-0.1,0.6,0.3,0.7,0.7,0.6c0.2,0,0.3-0.2,0.5-0.4
			C-326.6,185.9-326.8,185.6-327.3,185.1z M-327.5,181.5c-0.1,0.1-0.3,0.2-0.3,0.3c0.2,0.3,0.4,0.7,0.7,1c0,0.1,0.2,0.1,0.3,0.1
			c0,0,0.1-0.1,0.1-0.2c-0.1-0.4-0.3-0.8-0.5-1.2C-327.2,181.5-327.4,181.5-327.5,181.5z"/>
		<path class="st1" d="M-312.5,187.8c-2.3,0-4-1.9-3.7-4.1c0.2-1.5,1.6-2.9,3.2-3.1c0.5-0.1,1.1-0.1,1.6,0c1.3,0.2,1.8,1.3,1.3,2.6
			c-0.3,0.7-0.6,1.2-1.4,1.4c-0.5,0.2-0.9,0.5-1.3,0.8c-0.2,0.1-0.3,0.2-0.5,0.3c0.5,0.1,0,1,0.8,0.9c0.7-0.1,1.5,0.2,2-0.6
			c0.1-0.1,0.2-0.2,0.3-0.2c0.2,0.1,0.4,0.2,0.7,0.4c0.4,0.2,0.1,0.4-0.1,0.6C-310.7,187.7-310.9,187.9-312.5,187.8z M-311.7,181.8
			c-1.1-0.4-1.1,0.8-1.6,1.4c-0.2,0.2-0.2,0.6-0.3,1c0.4,0,0.7,0,1.1-0.2c0.7-0.2,1.2-0.7,1.6-1.3
			C-310.8,182.3-311.1,181.8-311.7,181.8z"/>
		<path class="st1" d="M-333.8,180.6c0.5,0.1,1.1-0.2,1.6,0.4c1.4,1.5,1.2,2.4-0.5,3.7c-0.4,0.3-1,0.5-1.5,0.8
			c-0.2,0.1-0.4,0.2-0.6,0.3c0.3,0.3,0.5,0.8,0.8,0.9c0.7,0.1,1.5,0.2,2-0.5c0.1-0.1,0.2-0.2,0.3-0.2c0.2,0.1,0.5,0.2,0.7,0.3
			c0.3,0.2,0.1,0.3,0,0.6c-0.5,0.8-1.5,0.8-2.2,1c-0.6,0.2-1.5,0.2-2.2-0.3c-1.7-1-2.5-2.4-2.1-4.1
			C-337.3,181.9-335.5,180.6-333.8,180.6z M-334.8,183.3c0,0.9,0.2,1.1,0.8,0.7c0.5-0.3,1-0.6,1.4-1c0.4-0.4,0.3-0.8-0.2-1.1
			c-0.7-0.4-1.5-0.1-1.8,0.7C-334.7,182.9-334.7,183.2-334.8,183.3z"/>
		<path class="st1" d="M-274.4,157.2c0.7,0,0.9,0,1.2,0c0.8,0.1,1.6,0.7,1.7,1.3c0.2,1.1-0.3,2-1.1,2.5c-0.5,0.3-1.1,0.5-1.6,0.9
			c-0.2,0.1-0.4,0.4-0.4,0.6c0.1,0.3,0.3,0.7,0.5,0.7c0.5,0.1,1-0.1,1.5-0.2c0.3-0.1,0.5-0.4,0.8-0.5c0.2-0.1,0.5,0.1,0.7,0.1
			c-0.1,0.2,0,0.5-0.2,0.7c-0.7,0.7-1.4,1.3-2.5,0.8c-0.6,0.6-1.3,0.1-1.8-0.1c-0.6-0.2-1.1-1-1.6-1.5c-0.1-0.1-0.2-0.2-0.2-0.3
			c-0.6-1.7,0.4-4.1,2-4.7C-275.1,157.2-274.5,157.2-274.4,157.2z M-272.6,159.1c-0.1-0.3-0.1-0.6-0.3-0.7c-0.3-0.2-1.4,0.1-1.6,0.4
			c-0.2,0.5-0.4,1-0.6,1.6c0,0.1,0.2,0.3,0.3,0.4c0.9,0.4,1.1-0.9,1.9-0.8C-272.8,160-272.7,159.4-272.6,159.1z"/>
		<path class="st1" d="M-313.8,160.8c-0.1-1.6,0.5-2.8,2-3.4c1-0.4,2-0.4,3,0.1c0.7,0.3,1.1,0.5,1.1,1.4c0,0.8,0,1.6-1,2
			c-0.6,0.3-1.2,0.6-1.8,1c-0.2,0.2-0.5,0.6-0.4,0.8c0.1,0.3,0.4,0.6,0.7,0.6c0.5,0.1,1.1,0.2,1.5-0.3c0.2-0.4,0.6-0.6,1-0.4
			c0.2,0.1,0.4,0.4,0.4,0.5c-0.3,0.8-1.6,1.6-2.4,1.2c-0.6-0.3-0.7,0.3-1.1,0.2c-0.8-0.2-2.5-1.3-2.8-2
			C-313.9,161.9-313.8,161.3-313.8,160.8z M-309,159.3c0-0.9,0-0.9-0.6-0.9c-0.4,0-0.9,0.1-1,0.3c-0.3,0.5-0.5,1.1-0.7,1.7
			c0,0.1,0.2,0.3,0.3,0.4c0.9,0.4,1.1-0.9,1.9-0.8C-309.1,160-309,159.4-309,159.3z"/>
		<path class="st1" d="M-378.2,157.2c0.4,0,0.8-0.1,1.2,0c1.4,0.3,2,2,1,3.1c-0.6,0.6-1.3,1-2.1,1.3c-0.3,0.1-0.7,0.6-0.6,0.9
			c0.1,0.4,0.5,0.7,1,0.7c0.6,0,1-0.2,1.4-0.6c0.3-0.3,0.6-0.3,0.8,0.1c0.1,0.2,0.2,0.5,0.2,0.5c-0.7,0.7-1.4,1.3-2.5,0.8
			c-0.6,0.5-1.1,0.1-1.7,0c-0.5-0.1-0.9-0.5-1.3-0.8c-0.6-0.4-1.1-2.2-0.8-2.9c0.1-0.2,0-0.5,0.1-0.8
			C-381,158-379.8,157.2-378.2,157.2z M-377.1,158.4c-1.2,0-1.3,0.1-1.6,1c-0.1,0.2,0,0.4-0.1,0.5c-0.2,0.3-0.5,0.6-0.1,0.8
			c0.2,0.1,0.7,0.1,0.9,0c0.4-0.2,0.9-0.4,1.1-0.7c0.2-0.3,0.2-0.8,0.2-1.3C-376.7,158.6-377,158.5-377.1,158.4z"/>
		<path class="st1" d="M-336.8,159.1c0,1.4-0.5,2-2.1,2.5c-1,0.3-1,0.3-0.9,0.8c0.2,0.7,0.7,1,1.4,0.8c0.5-0.1,0.9-0.5,1.3-0.7
			c0.2-0.1,0.6,0,0.6,0.1c0,0.3,0,0.9-0.1,0.9c-0.9,0.1-1.6,1.5-2.7,0.5c-2.2-0.2-2.5-0.4-3.3-1.8c-1.1-1.9,0.4-4.6,2.8-5
			c0.3-0.1,0.7,0,1,0C-337.4,157.2-336.8,157.8-336.8,159.1z M-340.1,160.1c0.1,0.2,0.2,0.5,0.3,0.7c0.2-0.1,0.5-0.2,0.7-0.3
			c0.4-0.3,0.9-0.5,1.2-0.9c0.4-0.4,0.3-0.8-0.1-1.1c-0.8-0.4-1.4-0.2-1.8,0.6C-339.9,159.5-340,159.8-340.1,160.1z"/>
		<path class="st1" d="M-399,157.2c0.9-0.2,1.5,0.2,2,0.8c0.5,0.6,0.9,1.1,1,2c0.2,1.9-0.3,3.3-1.9,4.1c-0.1,0.1-0.3,0.2-0.4,0.3
			c-0.5-0.9-1.1,0.5-1.7,0c-0.3-0.3-0.8-0.4-1.1-0.7c-0.3-0.3-0.5-0.7-0.7-1.1c-0.1-0.3-0.3-0.6-0.3-0.9c0-1.3-0.1-2.6,0.9-3.6
			C-400.5,157.4-399.9,157.1-399,157.2z M-396.9,160.9c0.2-0.8-0.2-1.5-0.6-2.1c-0.3-0.5-0.9-0.5-1.3-0.2c-1,0.8-1.2,3.4-0.3,4.2
			c0.2,0.2,0.8,0.5,0.9,0.4C-397.6,162.5-396.6,162.1-396.9,160.9z"/>
		<path class="st1" d="M-317.7,157.1c0.6,0.2,1.2,0.4,1.8,0.5c0.9,0.2,0.9,0.8,0.9,1.5c0,0.5-0.8,0.9-1.3,0.6
			c-0.3-0.2-0.7-0.3-1-0.6c-0.6-0.6-0.7-0.6-0.9,0c-0.4,1-0.7,2-0.1,3.1c0.9,1.6,0.9,1.6,2.4,0.5c0.1,0,0.1-0.1,0.1-0.1
			c0.2,0,0.5,0,0.7,0c-0.1,0.2,0,0.5-0.2,0.7c-0.6,0.6-1.1,1.4-2.1,0.8c-0.9,0.7-1.6,0-2.3-0.4c-1.2-0.6-1.2-1.9-1.8-2.9
			c0.6-0.8,0.5-1.9,1.3-2.7C-319.5,157.4-318.7,157.1-317.7,157.1z"/>
		<path class="st1" d="M-307.4,184.7c0-0.8,0-1.6,0-2.4c0-1-0.4-0.2-0.6-0.1c-0.1,0-0.3,0-0.4,0c-0.2,0-0.4-0.1-0.5-0.2
			c-0.1-0.1,0-0.4,0.1-0.5c0.5-0.5,0.9-1.2,1.8-0.9c0.4,0.1,1,0.4,1.2,0.3c0.4-0.3,0.9-0.2,1.3-0.3c0.6-0.1,1.1,0.1,1.6,0.4
			c0.7,0.5,1,0.8,0.8,1.6c-0.1,0.3-0.4,0.7-0.7,0.8c-0.3,0.1-0.7-0.2-1-0.3c-0.1,0-0.1-0.1-0.1-0.1c-0.2-0.5-0.4-1.3-1.1-1.1
			c-0.2,0.1-0.2,0.9-0.2,1.4c0,1.1,0,2.3,0,3.4c0,1.1,0,1.1-1.2,1.1c-0.5,0-0.9,0-0.8-0.7C-307.3,186.3-307.4,185.5-307.4,184.7z"/>
		<path class="st1" d="M-284,161.1c0-0.7,0-1.5,0-2.2c0-1-0.4-0.2-0.6-0.1c-0.1,0-0.3,0-0.4,0c-0.2,0-0.4-0.1-0.5-0.2
			c-0.1-0.1,0-0.4,0.1-0.5c0.7-0.9,1.5-1.2,2.6-0.8c0.4,0.1,0.6,0.3,1,0.1c0.8-0.4,1.6-0.2,2.4,0.2c0.8,0.4,1,0.8,0.8,1.6
			c-0.1,0.3-0.4,0.7-0.7,0.8c-0.3,0.1-0.8-0.1-1-0.3c-0.4-0.4-0.4-1.3-1.3-1.2c-0.1,0.6-0.2,1.3-0.2,1.9c0,0.9,0,1.7,0,2.6
			c0,1.1,0,1.1-1.2,1.1c-0.6,0-0.9-0.1-0.8-0.7C-283.9,162.6-284,161.9-284,161.1z"/>
		<path class="st1" d="M-192.7,100.1c-0.2-0.4-0.4-0.7-0.5-1.1c0,0,0.1-0.1,0.2-0.2c0.2,0.3,0.7,0.5,0.6,1
			C-192.5,99.8-192.6,99.9-192.7,100.1z"/>
		<path class="st1" d="M-194.7,99.1c-0.1,0-0.3,0-0.4,0c-0.1,0-0.1-0.2-0.2-0.3c0.5,0,1,0,1.5,0c0,0.1-0.1,0.3-0.1,0.3
			C-194.1,99.2-194.4,99.1-194.7,99.1z"/>
		<path class="st1" d="M-192,100c0,0.1,0,0.3,0,0.4c-0.1,0.1-0.2,0.2-0.3,0.3c0-0.1-0.1-0.2-0.1-0.3c0-0.1,0-0.3,0-0.4
			C-192.3,100-192.2,100-192,100z"/>
		<path class="st1" d="M-191.4,98.6c0.1,0.4,0.2,0.5,0.1,0.7c0,0.1-0.2,0.2-0.4,0.3c0-0.1,0-0.3,0-0.4
			C-191.6,99-191.5,98.9-191.4,98.6z"/>
		<path class="st1" d="M-371.1,164.3c0,0-0.1,0.1-0.1,0.1c-0.1,0-0.2-0.1-0.2-0.2c0.1-0.1,0.1-0.1,0.2-0.2
			C-371.2,164.1-371.1,164.2-371.1,164.3z"/>
		<path class="st1" d="M-373.1,164.2c-0.1,0.1-0.2,0.1-0.2,0.2c0-0.1-0.1-0.2-0.1-0.2c0.1-0.1,0.2-0.1,0.3-0.1
			C-373.1,164.1-373.1,164.2-373.1,164.2z"/>
		<path class="st1" d="M-367.1,164.3c0,0-0.1,0.1-0.1,0.1c-0.1,0-0.2-0.1-0.2-0.2c0.1-0.1,0.1-0.1,0.2-0.2
			C-367.2,164.1-367.1,164.2-367.1,164.3z"/>
		<path class="st1" d="M-192,100c0.1-0.1,0.3-0.3,0.4-0.4C-191.8,99.7-191.9,99.8-192,100z"/>
		<path class="st2" d="M-262.2,109.2c0,1-0.1,2,0,3c0.1,1-0.9,1-1.4,1.4c-0.5,0.4-0.9-0.3-1.1-0.6c-0.6-1-1.3-1.9-1.2-3.1
			c0.1-1.2-0.2-2.5,0.4-3.7c0.3-0.6,0.5-1.2,0.9-1.6c0.3-0.3,1.1-0.2,1.4,0c0.5,0.3,1,0.8,0.9,1.6
			C-262.3,107.2-262.2,108.2-262.2,109.2z"/>
		<path class="st2" d="M-375.2,178.5c0.4,0.6,0.7,1.1,1,1.6c0.9,1.7,2.2,3.2,2.5,5.2c0,0.3,0.2,0.5-0.1,0.7c-1,0.8-2.3,0.8-3.4,1.4
			c-0.9-0.6-2.1-0.5-3.1-1.3c-1.6-1.4-2.2-3-2-5c0.1-1.5,2.1-4.2,3.5-4.5c0.3-0.1,0.8,0.1,1,0.3c0.3,0.2,0.5,0.5,0,0.9
			c-0.6,0.4-1.3,0.8-1.6,1.4c-0.6,0.9-0.7,2-0.1,3.1c0.5,0.9,1.3,1.1,2.2,1.2c0.5,0,0.9-0.8,0.8-1.2c-0.1-0.9-0.9-1.2-1.6-1.5
			c-0.5-0.3-0.8-0.5-0.6-0.7C-376.2,179.5-375.8,179.1-375.2,178.5z"/>
		<path class="st2" d="M-375.9,171.8c-0.3-1.3,0.3-2.2,1.6-2.7c0.9-0.4,2.7,0.6,2.8,1.6c0,0.1,0,0.1,0,0.2c-0.1,0.7,0.3,1.4-0.3,2.1
			c-0.7,0.8-1.7,1.1-2.6,1.5c-0.7,0.3-1.4-0.2-1.6-1c0-0.1,0-0.3,0-0.4C-375.9,172.8-375.9,172.4-375.9,171.8z"/>
		<path class="st2" d="M-369.4,182.3c0,0,0,0.3-0.1,0.5c0,0.1-0.3,0.2-0.5,0.2c-0.1,0-0.2-0.1-0.3-0.2c-0.7-1.1-1.4-2.2-2.1-3.3
			c-0.1-0.2-0.1-0.5-0.2-0.7c0.3,0,0.7-0.2,0.9-0.1C-370.3,179.1-369.4,180.4-369.4,182.3z"/>
		<path class="st2" d="M-273.9,105.8c0.1,1.2-0.8,1.7-1.6,2.2c-0.4,0.2-0.8,0.4-1.2,0.6c-0.3,0.1-0.9,0.3-1.1,0.2
			c-0.4-0.3-0.2-0.7,0-1.2c0.4-0.8,0.2-1.7,0.9-2.5c0.4-0.5,1.2-1.2,1.5-1.1C-274.4,104.2-273.9,104.9-273.9,105.8z"/>
		<path class="st2" d="M-388.9,108.8c-0.1-0.1-0.3-0.3-0.3-0.3c0.6-1,0.2-2.3,1-3.4c0.8-1,1.5-1.3,2.5-0.6c0.3,0.2,0.5,0.4,0.7,0.7
			c0.1,0.2,0.2,0.5,0.1,0.7c-0.7,1.5-1.9,2.5-3.5,2.9C-388.5,108.9-388.7,108.8-388.9,108.8z"/>
		<path class="st2" d="M-227.5,107.7c0.2-1,0.5-2.2,1.4-3.2c0.4-0.4,0.9-0.6,1.4-0.3c0.5,0.4,1.4,0.4,1.3,1.4
			c-0.1,1.1-0.7,1.9-1.6,2.5c-0.4,0.3-0.9,0.5-1.3,0.7C-227.3,109.1-227.5,108.9-227.5,107.7z"/>
		<path class="st2" d="M-368.2,108.8c0-0.3,0-0.5,0-0.7c0.1-1.2,0.3-2.4,1.2-3.3c0.4-0.4,1-0.6,1.5-0.3c0.2,0.1,0.3,0.3,0.4,0.5
			c0.9,1.4,1.9,3,1.7,4.6c-0.1,1.1-0.7,2.1-1.5,2.9c-0.3,0.3-0.6,0.6-1,0.8C-367.9,114-368.2,110.6-368.2,108.8z"/>
		<path class="st2" d="M-420.2,108.8c-0.2,1-0.1,1.9-0.5,2.6c-0.3,0.6-1,1.1-1.5,1.6c-0.6,0.5-1.7,0.4-2-0.3
			c-0.8-1.7-1.2-3.5-0.7-5.4c0.4-1.5,0.8-2.1,1.4-2.6c0.4-0.3,0.8-0.4,1.2,0c0.8,0.8,1.6,1.5,1.7,2.7
			C-420.6,107.9-420.3,108.4-420.2,108.8z"/>
		<path class="st2" d="M-347.3,160.9c0,0.5,0.1,1.1,0,1.6c-0.1,0.6-0.8,0.9-1.3,0.4c-1-0.9-1.3-2.7-0.7-3.9c0.2-0.4,0.6-0.7,1.1-0.6
			c0.5,0.1,0.8,0.4,0.8,0.9C-347.3,159.9-347.3,160.4-347.3,160.9z"/>
		<path class="st2" d="M-265,160.9c0,0.3,0,0.7,0,1c0,0.7-0.6,1.1-1,1.3c-0.5,0.3-0.8-0.3-1.1-0.6c-0.4-0.4-0.5-1.6-0.4-2.3
			c0-0.2,0-0.4,0-0.6c-0.1-0.7,0.2-1.1,0.9-1.2c0.5-0.1,1.4,0.7,1.5,1.3C-265,160.1-265,160.5-265,160.9z"/>
		<path class="st2" d="M-356.2,161c0.3,0.9-0.1,1.6-0.9,2.1c-0.2,0.1-0.5,0.1-0.7,0c-1.2-0.9-1.5-3-0.7-4.2c0.4-0.5,1-0.6,1.5-0.2
			C-356.1,159.2-356.1,160-356.2,161z"/>
		<path class="st2" d="M-292.7,184.8c0.5,0.6,0.9,1,1.3,1.4c0.1,0.1,0.1,0.3,0,0.3c-0.1,0.1-0.2,0.1-0.4,0.1
			C-292.6,186.6-292.8,186.3-292.7,184.8z"/>
		<path class="st2" d="M-292.5,182.8c-0.1-0.3-0.3-0.5-0.3-0.7c0-0.1,0.3-0.3,0.4-0.3c0.2,0.1,0.3,0.3,0.4,0.5
			C-292,182.4-292.3,182.5-292.5,182.8z"/>
		<path class="st2" d="M-319.4,186.4c-0.1,0.1-0.2,0.2-0.4,0.2c-0.7,0.1-1-0.3-0.8-1c0-0.1,0.1-0.2,0.2-0.2
			C-320,185.3-319.4,185.9-319.4,186.4z"/>
		<path class="st2" d="M-319.8,182.7c-0.1,0.1-0.1,0.2-0.2,0.2c-0.3-0.2-0.6-0.5-0.9-0.7c-0.3-0.2-0.1-0.4,0.1-0.6
			c0.1-0.1,0.2-0.2,0.3-0.3C-320.2,181.8-320,182.3-319.8,182.7z"/>
		<path class="st2" d="M-320.8,185.4c-0.1-0.1-0.1-0.2-0.2-0.2c0.1,0,0.2-0.1,0.2-0.1c0.1,0.1,0.1,0.2,0.1,0.3
			C-320.7,185.4-320.8,185.4-320.8,185.4z"/>
		<path class="st2" d="M-327.3,185.1c0.4,0.5,0.7,0.8,1,1.2c-0.2,0.1-0.3,0.3-0.5,0.4c-0.4,0.1-0.8,0-0.7-0.6
			C-327.5,185.8-327.4,185.6-327.3,185.1z"/>
		<path class="st2" d="M-327.5,181.5c0.1,0,0.3,0,0.3,0c0.2,0.4,0.3,0.8,0.5,1.2c0,0-0.1,0.2-0.1,0.2c-0.1,0-0.2,0-0.3-0.1
			c-0.2-0.3-0.5-0.7-0.7-1C-327.8,181.8-327.6,181.6-327.5,181.5z"/>
		<path class="st2" d="M-311.7,181.8c0.7,0,1,0.5,0.8,0.9c-0.4,0.6-0.9,1.1-1.6,1.3c-0.3,0.1-0.7,0.1-1.1,0.2c0.1-0.3,0.1-0.7,0.3-1
			C-312.9,182.6-312.8,181.4-311.7,181.8z"/>
		<path class="st2" d="M-334.8,183.3c0-0.1,0.1-0.4,0.2-0.7c0.3-0.8,1-1.1,1.8-0.7c0.5,0.3,0.6,0.7,0.2,1.1c-0.4,0.4-0.9,0.7-1.4,1
			C-334.6,184.4-334.8,184.2-334.8,183.3z"/>
		<path class="st2" d="M-272.6,159.1c-0.1,0.3-0.2,0.9-0.3,0.9c-0.8,0-1,1.2-1.9,0.8c-0.1-0.1-0.3-0.3-0.3-0.4
			c0.2-0.5,0.3-1.1,0.6-1.6c0.2-0.4,1.3-0.7,1.6-0.4C-272.7,158.6-272.7,158.9-272.6,159.1z"/>
		<path class="st2" d="M-309,159.3c0,0.1-0.1,0.7-0.2,0.7c-0.8-0.1-1,1.2-1.9,0.8c-0.1-0.1-0.3-0.3-0.3-0.4c0.2-0.6,0.4-1.2,0.7-1.7
			c0.2-0.2,0.7-0.3,1-0.3C-309,158.4-309,158.4-309,159.3z"/>
		<path class="st2" d="M-377.1,158.4c0,0,0.4,0.2,0.4,0.3c0,0.4,0,0.9-0.2,1.3c-0.2,0.3-0.7,0.6-1.1,0.7c-0.3,0.1-0.7,0.1-0.9,0
			c-0.4-0.3-0.1-0.5,0.1-0.8c0.1-0.1,0.1-0.4,0.1-0.5C-378.4,158.5-378.3,158.4-377.1,158.4z"/>
		<path class="st2" d="M-340.1,160.1c0.1-0.3,0.2-0.6,0.3-0.9c0.3-0.8,1-1,1.8-0.6c0.5,0.3,0.6,0.7,0.1,1.1
			c-0.4,0.3-0.8,0.6-1.2,0.9c-0.2,0.1-0.5,0.2-0.7,0.3C-339.9,160.6-340,160.4-340.1,160.1z"/>
		<path class="st2" d="M-396.9,160.9c0.3,1.2-0.7,1.6-1.3,2.2c-0.1,0.1-0.7-0.1-0.9-0.4c-0.9-0.8-0.7-3.4,0.3-4.2
			c0.4-0.3,1.1-0.2,1.3,0.2C-397.1,159.4-396.7,160.1-396.9,160.9z"/>
	</g>
</g>
<g id="Layer_2">
	<g>
		<rect x="2.7" y="74.7" class="st3" width="0.9" height="4.2"/>
		<rect x="4.6" y="68.4" class="st3" width="0.9" height="10.5"/>
		<rect x="7.3" y="66.8" class="st3" width="0.9" height="12.1"/>
		<rect x="9.6" y="65.2" class="st3" width="0.9" height="13.8"/>
		<rect x="11.8" y="63.6" class="st3" width="0.9" height="15.3"/>
		<rect x="13.7" y="61.8" class="st3" width="0.9" height="17.1"/>
		<g>
			<polygon class="st3" points="115.5,46 115.5,45.6 114.5,45.6 114.5,43.7 114.1,43.7 114.1,45.6 114.1,46 114.5,46 			"/>
			<rect x="135.9" y="58.2" class="st3" width="0.4" height="4.1"/>
			<rect x="136.8" y="58.2" class="st3" width="0.4" height="4.1"/>
			<rect x="137.7" y="58.2" class="st3" width="0.4" height="4.1"/>
			<rect x="138.6" y="58.2" class="st3" width="0.4" height="4.1"/>
			<rect x="140.9" y="58.2" class="st3" width="0.4" height="4.1"/>
			<rect x="141.8" y="58.2" class="st3" width="0.4" height="4.1"/>
			<rect x="142.7" y="58.2" class="st3" width="0.4" height="4.1"/>
			<rect x="145" y="58.2" class="st3" width="0.4" height="4.1"/>
			<rect x="145.9" y="58.2" class="st3" width="0.4" height="4.1"/>
			<rect x="146.8" y="58.2" class="st3" width="0.4" height="4.1"/>
			<polygon class="st3" points="141.4,55.1 136.3,57.7 146.4,57.7 			"/>
			<path class="st3" d="M134.1,66.4c0,0,0-1.4-1.4-1.4s-1.4,1.3-1.4,1.3v3.6h2.7V66.4z"/>
			<path class="st3" d="M137.3,66.4c0,0,0-1.4-1.4-1.4s-1.4,1.3-1.4,1.3v3.6h2.7V66.4z"/>
			<path class="st3" d="M140.5,66.4c0,0,0-1.4-1.4-1.4s-1.4,1.3-1.4,1.3v3.6h2.7V66.4z"/>
			<path class="st3" d="M143.6,66.4c0,0,0-1.4-1.4-1.4s-1.4,1.3-1.4,1.3v3.6h2.7V66.4z"/>
			<path class="st3" d="M130.8,66.4c0,0,0-1.4-1.4-1.4s-1.4,1.3-1.4,1.3v3.6h2.7V66.4z"/>
			<path class="st3" d="M134.1,72.6c0,0,0-1.4-1.4-1.4s-1.4,1.3-1.4,1.3v3.6h2.7V72.6z"/>
			<path class="st3" d="M137.3,72.6c0,0,0-1.4-1.4-1.4s-1.4,1.3-1.4,1.3v3.6h2.7V72.6z"/>
			<path class="st3" d="M140.5,72.6c0,0,0-1.4-1.4-1.4s-1.4,1.3-1.4,1.3v3.6h2.7V72.6z"/>
			<path class="st3" d="M143.6,72.6c0,0,0-1.4-1.4-1.4s-1.4,1.3-1.4,1.3v3.6h2.7V72.6z"/>
			<path class="st3" d="M130.8,76.2v-3.6c0,0,0-1.4-1.4-1.4s-1.4,1.3-1.4,1.3v3.6H130.8z"/>
			<path class="st3" d="M203.1,43.3c0,0-0.3-0.8-1.3-1v-2.7h-0.4v2.7c-1.1,0.1-1.3,1-1.3,1v2.2h3.1V43.3z"/>
			<rect x="180.4" y="75" class="st3" width="0.9" height="0.5"/>
			<rect x="196.4" y="71.9" class="st3" width="1.4" height="0.9"/>
			<rect x="186.8" y="69.1" class="st3" width="2.7" height="1.8"/>
			<path class="st3" d="M188.2,73.6h-0.5v0.5V75v0.5h0.5h1.4h0.5V75v-0.9v-0.5h-0.5H188.2z M189.5,75h-1.4v-0.9h1.4V75z"/>
			<rect x="204.5" y="68.2" class="st3" width="1.8" height="1.8"/>
			<rect x="203.6" y="65.5" class="st3" width="1.8" height="1.3"/>
			<rect x="200.4" y="65.5" class="st3" width="1.8" height="2.7"/>
			<polygon class="st3" points="215.4,62.3 211.7,58.3 208.2,62.3 210.9,62.3 210.9,61 212.3,61 212.3,62.3 			"/>
			<polygon class="st3" points="205.4,54.6 205.4,53.7 202.3,53.7 203.6,54.6 			"/>
			<polygon class="st3" points="197.3,54.6 199.8,54.6 201.1,53.7 197.3,53.7 			"/>
			<polygon class="st3" points="201.6,49.1 200.4,50 202.7,50 			"/>
			<path class="st3" d="M201.3,48.3h-0.4v-0.5h0.4v-0.5h0.5v0.5h0.5v0.5h-0.5v0.4h1.3c0,0-0.3-2.7-1.6-2.7c-1.2,0-1.6,2.7-1.6,2.7
				h1.3V48.3z"/>
			<path class="st3" d="M195.4,54.6c0,0,0.3,0.1,0.5,0.1c0.1-3.3,1.2-5.5,2.3-6.8C195.3,49.9,195.4,54.6,195.4,54.6z"/>
			<path class="st3" d="M207.7,54.6c0,0,0.2-4.6-2.7-6.8c1.1,1.4,2.2,3.5,2.3,6.8C207.5,54.6,207.7,54.6,207.7,54.6z"/>
			<path class="st3" d="M198.6,53.2V50l0.4,0v-2.7c0,0-2.2,3.5-2.2,5.9H198.6z"/>
			<path class="st3" d="M204.6,53.2h1.8c0-2.4-2.2-5.9-2.2-5.9v2.7l0.4,0V53.2z"/>
			<rect x="199" y="51" class="st3" width="0.9" height="2.3"/>
			<rect x="203.2" y="51" class="st3" width="0.9" height="2.3"/>
			<rect x="219.9" y="47.4" class="st3" width="0.5" height="15.4"/>
			<rect x="219.1" y="47.4" class="st3" width="0.5" height="15.4"/>
			<rect x="217.7" y="47.4" class="st3" width="0.5" height="15.4"/>
			<rect x="218.6" y="41.4" class="st3" width="1.8" height="3.2"/>
			<rect x="238.2" y="64.1" class="st3" width="0.9" height="0.9"/>
			<rect x="236.8" y="64.1" class="st3" width="0.9" height="0.9"/>
			<rect x="233.2" y="64.1" class="st3" width="0.9" height="0.9"/>
			<rect x="231.8" y="64.1" class="st3" width="0.9" height="0.9"/>
			<rect x="234.5" y="64.1" class="st3" width="1.8" height="0.9"/>
			<path class="st3" d="M236.2,57.2c-3.5,0-6.3,2.8-6.3,6.3h12.6C242.5,60.1,239.7,57.2,236.2,57.2z"/>
			<path class="st3" d="M244.2,74.6h-1.5v-0.9v-0.8v-5v-0.6v-0.4v-0.1v-1.2h0.5v-1.4h-1.3h-0.1h-0.9V65h0.9v0.5h-1.4v-1.4h-0.9v1.4
				h-8.7h-0.1h-0.3V65h0.9v-0.9h-0.9h-0.1h-1.3v1.4h0.5v7.3c-0.5,0-1.1-0.4-1.8-0.9c-0.1-0.1-0.2-0.1-0.3-0.2
				c-0.1,0-0.1-0.1-0.2-0.1c0,0-0.1-0.1-0.1-0.1c-0.2-0.2-0.4-0.4-0.6-0.6c-1.5-1.7-1.7-4.1-1.4-5.3c0.7-0.7,2.5-2.2,2.1-2.5
				c-0.7-0.6-0.5-1.4-1.5-1.3c-0.5,0.1-0.3,0.4-0.8,0.4c-0.2,0-0.9-0.1-1.1,0.2c-0.5,0.4-0.2,1.1-0.6,1.6c0,0.2,0.5,0.1,0.7,0.2
				c0.4,0.1,0.7,0.4,0.7,0.4s0,0.7,0,1.4c0,0.7-1.2,0.9-1.2,0.9l0,0c-0.2-0.2-0.5-0.4-0.6-0.4v-1.8h-0.9v-19v-0.5V41v-0.1v-0.4h-0.4
				v-0.9v-0.1v-0.3h-4.1v0.3v0.1v0.9h-0.4v0.4V41v4.1v0.5v19h-0.9v-1.8h-8.2v1.8h-0.4v-0.9v-0.1v-0.4h-3.2V61h-1.4v2.2h-2.2l3.1-3.4
				l2.9,2.9l5-5.4l4.5,4.5l0.5-0.5l-3.5-3.5h0.1v-5.8h0.5V51h-0.5v-5.9h0.1h0.4v-0.4v-0.5v-0.4h-0.4h-0.1v-0.5h0v-0.4h0v-4.1h0v-0.4
				h0.5v-0.9h-0.5v-1h0.5v-3.1c0,0-0.2-1.9-2.3-2.2v-1.5v-0.4h-0.4h0v-1.8h0.9v-0.4h-0.9V26h-0.4v0.9h-0.9v0.4h0.9v1.8h0H210v0.4
				v1.5c-2.1,0.3-2.3,2.2-2.3,2.2v3.1h0.5v1h-0.5v0.9h0.5v5.5h0h-0.4v0.4v0.5v0.4h0.4h0V51h-0.5v0.9h0.5v5.3l-6.5-3.5l-2.6,1.4H195
				v-3.2h0.5V51H195v-5.9h0.1h0.4v-0.4v-0.5v-0.4H195H195v-0.5h0v-0.4h0v-4.1h0v-0.4h0.5v-0.9H195v-1h0.5v-3.1c0,0-0.2-1.9-2.3-2.2
				v-1.5v-0.4h-0.4h0v-1.8h0.9v-0.4h-0.9V26h-0.4v0.9h-0.9v0.4h0.9v1.8h0h-0.4v0.4v1.5c-2.1,0.3-2.3,2.2-2.3,2.2v3.1h0.5v1h-0.5v0.9
				h0.5v5.5h0h-0.4v0.4v0.5v0.4h0.4h0V51h-0.5v0.9h0.5v5.5h-2.8v-5.5v-0.3v-0.2h-0.9v-4.1v-0.2v-0.2h-5.5c-0.4-3.1-3-5.5-6.2-5.5
				c-3.2,0-5.9,2.4-6.2,5.6h-4.8h-0.2h-0.2v3.6h-0.5V50v-0.3v-0.2h-0.4v-1.4H160v-0.5h0.9v-0.4H160v-0.5h0.9v-0.4H160v-0.5h0.9v-0.4
				H160V45h0.9v-0.4H160v-1h0.5v-0.1v-0.3v-1v-0.1v-0.3H160v-1h-0.4v1h-0.5v0.3v0.1v1v0.3v0.1h0.5v1h-0.9V45h0.9v0.5h-0.9v0.4h0.9
				v0.5h-0.9v0.4h0.9v0.5h-0.9v0.4h0.9v0.5h-2.3v1.4h-0.4v0.3h0v0.6h-0.4v0.2v0.2v0.5h-0.5v0.4h0.9v3.3h-0.9l-1.8,1.4v0.5h2.3v0.5
				H150v-3.2h-1.3v0h-7.3l5,3.2h1.4v5.5h-3.2v0h-9.6v-5.5h1l5-3.2h-7.3v3.1H118V42.4v-0.1h0.5v-0.8v-5.1v-0.8h-0.8h-0.1v-1.1h0h-0.4
				h-0.5v-2.8h0.4v-0.5v-0.9v-0.4v0h-0.7V29h0c0-1.2-0.9-2.1-2-2.4V25h2.7h0.5v-0.4v-0.9v-0.4h-3.2v-0.4h-0.5v3.8
				c-1.4,0-2.5,1.1-2.5,2.4h0v1h-0.7v0v0.4v0.9v0.5h0.4v2.8h-0.4h-0.5v0.5v0.6h-0.3v0.8v5.1v0.8h0.5v0.1v20.5h-6.9l-4.8-34l2.5-10.7
				h-4.1L94.7,0l-2.6,18.2h-3.5l2.2,9.3l-3.6,25.3v-21h-14V46H58.7v20.1c-5.2-6.2-10-15.4-14.3-27.3c-0.7-2-0.7-2-1.1-2.1l-0.1,0
				v-0.3h-0.5v0.6c-0.1,0.1-0.1,0.2-0.2,0.3h-0.2v0.3c-0.3,0.5-0.7,1-1,1.5h-6.9c-0.1-0.3-0.2-0.6-0.4-0.9L33.6,37l-0.1,0.2h-0.4
				v-0.9h-0.5v0.9h-0.5V40c-0.6,1.2-1.3,2.4-2,3.6H30V44C21,57.9,3.9,68.5,3.7,68.6l0.5,0.9c0.1-0.1,5.4-3.4,11.7-8.7v5.1
				c-8.3,6.2-14.2,8.6-14.3,8.7L2,75.5c0.1,0,5.9-2.4,14-8.4v11.5H0v0.8h58.7h2.2h12.3h3h7.2h3.8h17.5h1.2h0.1h4.9h1h5.4h1.6h5h3
				h0.9h63.2h53.3h13.1v-0.8C257.3,76.6,244.2,74.6,244.2,74.6z M159.5,42.3h0.5v1h-0.5V42.3z M114.5,23.6h2.7v0.9h-2.7V23.6z
				 M71.3,46.9l1.4,0v5l-1.4,0V46.9z M71.3,52.8l1.4,0v3.7l-1.4,0V52.8z M71.3,57.4l1.4,0v4.5l-1.4,0V57.4z M71.3,62.8l1.4,0V66
				l-1.4,0V62.8z M71.3,66.9l1.4,0v4.5l-1.4,0V66.9z M72.7,72.3v3.4c-0.5-0.1-1-0.2-1.4-0.4v-3L72.7,72.3z M68.7,46.9h1.8v5h-1.8
				V46.9z M68.7,52.8h1.8v3.7h-1.8V52.8z M68.7,57.4h1.8v4.5h-1.8V57.4z M68.7,62.8h1.8V66h-1.8V62.8z M68.7,66.9h1.8v4.5h-1.8V66.9
				z M70.4,72.3V75c-0.6-0.2-1.2-0.5-1.8-0.7v-2H70.4z M66.4,46.9h1.4v5h-1.4V46.9z M66.4,52.8h1.4v3.7h-1.4V52.8z M66.4,57.4h1.4
				v4.5h-1.4V57.4z M66.4,62.8h1.4V66h-1.4V62.8z M66.4,66.9h1.4v4.5h-1.4V66.9z M67.8,72.3v1.5c-0.5-0.2-0.9-0.5-1.4-0.8v-0.7H67.8
				z M61.8,70.8c0.2,0.2,0.4,0.4,0.6,0.6h-0.6V70.8z M59.5,68.6c0.5,0.5,0.9,0.9,1.4,1.4v1.4h-1.4V68.6z M60.9,72.3v3
				c-0.4-0.3-0.9-0.6-1.4-0.9v-2.1H60.9z M61.8,72.3h1.4v4.2c-0.4-0.2-0.9-0.4-1.4-0.6V72.3z M64.1,76.8v-4.1c0.5,0.3,0.9,0.7,1.4,1
				v3.5C65,77.1,64.6,77,64.1,76.8z M65.3,72.3h0.2v0.1C65.4,72.4,65.3,72.3,65.3,72.3z M64.1,46.9h1.4v5h-1.4V46.9z M64.1,52.8h1.4
				v3.7h-1.4V52.8z M64.1,57.4h1.4v4.5h-1.4V57.4z M64.1,62.8h1.4V66h-1.4V62.8z M64.1,66.9h1.4v4.5h-1.4V66.9z M61.8,46.9h1.4v5
				h-1.4V46.9z M61.8,52.8h1.4v3.7h-1.4V52.8z M61.8,57.4h1.4v4.5h-1.4V57.4z M61.8,62.8h1.4V66h-1.4V62.8z M63.2,66.9v3.8
				c-0.5-0.4-0.9-0.8-1.4-1.2v-2.6H63.2z M59.5,46.9h1.4v5h-1.4V46.9z M59.5,52.8h1.4v3.7h-1.4V52.8z M59.5,57.4h1.4v4.5h-1.4V57.4z
				 M59.5,62.8h1.4V66h-1.4V62.8z M59.5,66.9h1.4v1.7c-0.5-0.5-0.9-1-1.4-1.5V66.9z M58.7,73.8c-0.5-0.3-0.9-0.7-1.4-1.1V66
				c0.5,0.6,0.9,1.1,1.4,1.7V73.8z M53.2,60.3v8.5c-0.3-0.3-0.6-0.7-0.9-1v-9.2c0.3,0.6,0.7,1.2,1.1,1.7H53.2z M54.1,61.5
				c0.3,0.5,0.6,0.9,0.9,1.4v7.7c-0.3-0.3-0.6-0.6-0.9-0.9V61.5z M51.4,57.4v9.5c-0.2-0.2-0.3-0.4-0.5-0.6V56.2
				c0.2,0.4,0.4,0.8,0.7,1.2H51.4z M50,54.6v10.6c-0.3-0.4-0.6-0.8-0.9-1.2V52.6C49.4,53.3,49.7,54,50,54.6L50,54.6z M48.2,51.4
				v11.5c-0.3-0.4-0.7-0.9-1-1.3V48.6c0.4,1,0.9,1.9,1.3,2.8H48.2z M46.3,47.4v13.1c-0.1-0.2-0.3-0.4-0.4-0.6V45.6
				c0.3,0.6,0.5,1.2,0.8,1.8H46.3z M46.3,62.1v16.6h-0.4V61.5C46,61.7,46.2,61.9,46.3,62.1z M47.2,63.3c0.3,0.4,0.7,0.8,1,1.3v14.1
				h-1V63.3z M49.1,65.6c0.3,0.4,0.6,0.8,0.9,1.1v11.9h-0.9V65.6z M50.9,67.8c0.2,0.2,0.3,0.4,0.5,0.5v10.4h-0.5V67.8z M52.3,69.3
				c0.3,0.3,0.6,0.7,0.9,1v8.4h-0.9V69.3z M54.1,71.1c0.3,0.3,0.6,0.6,0.9,0.9v6.7h-0.9V71.1z M55.9,72.8c0.2,0.1,0.3,0.3,0.5,0.4
				v5.4h-0.5V72.8z M55.9,71.5v-7.3c0.2,0.2,0.3,0.4,0.5,0.7v7.1C56.2,71.8,56.1,71.7,55.9,71.5z M45.3,44.1H45v14.6
				c-0.3-0.5-0.6-0.9-0.9-1.4V45.2h-0.4v-5.4C44.2,41.2,44.8,42.7,45.3,44.1z M41.9,61.8h-0.5v0.5h-0.5v-5.9h0c0.6,0,1,0.5,1,1V61.8
				z M33.9,61.8v-4.4c0-0.5,0.3-0.8,0.7-1v5.9H34v-0.5H33.9z M34.6,42v4h-0.7v-0.9h-0.2v-3.4c0-0.3,0.2-0.6,0.5-0.7
				C34.3,41.4,34.4,41.7,34.6,42z M41.6,41c0.4,0,0.8,0.3,0.8,0.8v3.4h-0.4V46h-4.4c1.2-1.6,2.5-3.2,3.7-5H41.6z M40,53.8h-0.9V51
				c0.3,0.5,0.6,1.1,0.9,1.6V53.8z M38.2,53.8h-0.9v-6h0.1c0.3,0.5,0.6,1.1,0.9,1.6V53.8z M38.2,56.3v5.9h-0.9v-5.9H38.2z
				 M35.4,48.6c0.2-0.3,0.5-0.5,0.7-0.8h0.3v6h-1V48.6z M36.3,46h-0.8v-2c0.3,0.6,0.6,1.3,0.9,1.9C36.3,45.9,36.3,46,36.3,46z
				 M33.9,48.8c0-0.5,0.3-0.8,0.7-1v0.3c-0.2,0.3-0.5,0.6-0.7,0.9V48.8z M34.6,49.7v4c-0.4-0.1-0.7-0.5-0.7-1v-2.3
				C34.1,50.2,34.3,49.9,34.6,49.7z M35.4,56.3h1v5.9h-1V56.3z M35.4,64.9h1v13.8h-1V64.9z M37.3,64.9h0.9v13.8h-0.9V64.9z
				 M39.1,64.9H40v13.8h-0.9V64.9z M39.1,62.3v-5.9H40v5.9H39.1z M39.1,48.9v-1.1h1.8c0.6,0,1,0.5,1,1v3.9c0,0.3-0.1,0.5-0.3,0.7
				C40.7,51.9,39.9,50.4,39.1,48.9z M37,45c-0.6-1.2-1.1-2.3-1.6-3.5V41H40C39,42.4,38,43.7,37,45z M32.3,45.2h-0.4v6.1
				c-0.3,0.4-0.6,0.7-0.9,1v-7.9c0.5-0.8,0.9-1.5,1.4-2.3V45.2z M30,53.3c-0.3,0.3-0.6,0.7-0.9,1v-7.2c0.3-0.4,0.6-0.9,0.9-1.3V53.3
				z M27.3,49.4c0.3-0.4,0.6-0.8,0.9-1.2v6.9c-0.3,0.3-0.6,0.6-0.9,0.9V49.4z M26.4,57c-0.5,0.5-0.9,0.9-1.4,1.3v-6.2
				c0.5-0.5,0.9-1.1,1.4-1.6V57z M24.1,59.1c-0.5,0.4-0.9,0.9-1.4,1.3v-5.9c0.5-0.5,0.9-1,1.4-1.5V59.1z M21.8,61.2
				c-0.3,0.3-0.6,0.5-1,0.8v-5.6c0.3-0.3,0.6-0.6,1-0.9V61.2z M20,62.7c-0.5,0.4-0.9,0.8-1.4,1.1v-5.4c0.5-0.4,0.9-0.8,1.4-1.3V62.7
				z M20,64v14.7h-1.4V65.1C19.1,64.8,19.5,64.4,20,64z M20.9,63.3c0.3-0.3,0.6-0.5,1-0.8v16.2h-1V63.3z M22.7,61.7
				c0.5-0.4,0.9-0.8,1.4-1.2v18.2h-1.4V61.7z M25,59.7c0.5-0.4,0.9-0.9,1.4-1.3v20.3H25V59.7z M27.3,57.5c0.3-0.3,0.6-0.6,0.9-0.9
				v22.1h-0.9V57.5z M29.1,55.7c0.3-0.3,0.6-0.7,0.9-1v24h-0.9V55.7z M16.8,60c0.3-0.3,0.6-0.5,0.9-0.8v5.3
				c-0.3,0.2-0.6,0.5-0.9,0.7V60z M16.8,66.5c0.3-0.2,0.6-0.5,0.9-0.7v12.9h-0.9V66.5z M30.9,78.7V53.8c0.3-0.3,0.6-0.7,0.9-1v9
				h-0.5v16.9H30.9z M34,66.2c0-0.4,0.2-0.8,0.5-1v13.5H34V66.2z M40.9,78.7V65.2c0.3,0.2,0.5,0.6,0.5,1v12.4H40.9z M44.1,61.8V59
				c0.3,0.4,0.6,0.9,0.9,1.3v18.3h-0.5V61.8H44.1z M57.3,78.7V74c0.5,0.4,0.9,0.7,1.4,1.1v3.6H57.3z M59.5,77.8v-2.2
				c0.5,0.3,0.9,0.6,1.4,0.8v1.3H59.5z M61.8,77.8v-0.8c0.5,0.2,0.9,0.4,1.4,0.6v0.2H61.8z M66.4,77.8l0-0.5c0,0,0,0,0,0v-3.1
				c0.5,0.3,0.9,0.5,1.4,0.7v2.8H66.4z M68.7,77.8v-2.4c0.6,0.3,1.2,0.5,1.8,0.7v1.7H68.7z M71.3,77.8v-1.5c0.4,0.1,0.9,0.2,1.3,0.3
				l0.1-0.5v1.6L71.3,77.8z M75.9,66h-1.8v-2.7h1.8V66z M75.9,62.4h-1.8v-2.7h1.8V62.4z M75.9,58.7h-1.8V56h1.8V58.7z M75.9,55.1
				h-1.8v-2.7h1.8V55.1z M75.9,51.4h-1.8v-2.7h1.8V51.4z M75.9,47.8h-1.8v-2.7h1.8V47.8z M75.9,44.1h-1.8v-2.7h1.8V44.1z M75.9,40.5
				h-1.8v-2.7h1.8V40.5z M75.9,36.9h-1.8v-4.1h1.8V36.9z M126.8,66h-22.7l-0.1-0.9h22.8V66z M112,29.1h4.1v1H112V29.1z M111.4,30.5
				h5.4v0.9h-5.4V30.5z M116.3,31.8v2.8h-0.9v-2.8H116.3z M115,31.8v2.8h-0.5v-2.8H115z M114.1,31.8v2.8h-0.9v-2.8H114.1z
				 M112.7,31.8v2.8h-0.9v-2.8H112.7z M110.9,35.1h6.4v0.6h-6.4V35.1z M110.9,36.4h6.9v5.1h-0.5v-4.6h-0.5v4.6h-0.5v-4.6h-0.5v4.6
				h-0.5v-4.6H115v4.6h-0.5v-4.6h-0.5v4.6h-0.5v-4.6h-0.5v4.6h-0.5v-4.6h-0.5v4.6h-0.5v-4.6h-0.5v4.6h-0.4V36.4z M114.2,49
				c1.5,0,2.7-1,3.1-2.3v16.2h-5.9V47.3C111.9,48.3,113,49,114.2,49z M111.7,45.7c0-1.4,1.1-2.5,2.5-2.5c1.4,0,2.5,1.1,2.5,2.5
				s-1.1,2.5-2.5,2.5C112.8,48.2,111.7,47.1,111.7,45.7z M114.2,42.4c-1.2,0-2.3,0.7-2.8,1.7v-1.7h5.9v2.4
				C116.9,43.4,115.6,42.4,114.2,42.4z M126.8,64.1v0.6h-22.9l-0.1-0.6H126.8z M93.6,18.2h2.7l0.5,3.2h-3.5L93.6,18.2z M93.1,22.8
				H97l0.5,3.2h-4.7L93.1,22.8z M92.6,27.4h5l0.3,2.3h-5.6L92.6,27.4z M92.2,31.4h6l0.5,3.1h-6.8L92.2,31.4z M91.7,35.9h7.2l0.4,2.8
				h-7.9L91.7,35.9z M91.2,40.5h8.3l0.4,2.8h-9L91.2,40.5z M90.8,44.6h9.4l0.4,2.8H90.5L90.8,44.6z M90.3,49.2h10.5l0.4,2.7H90
				L90.3,49.2z M89.8,53.2h11.5l0.4,2.8H89.5L89.8,53.2z M89.3,57.8H102l0.4,2.8H89L89.3,57.8z M88.9,61.9h13.7l0.4,2.7H88.6
				L88.9,61.9z M88.4,66.4h14.9l0.4,2.7H88.1L88.4,66.4z M87.9,70.5h15.9l0.4,2.8H87.6L87.9,70.5z M77.7,66h-0.9v-2.7h0.9V66z
				 M77.7,62.4h-0.9v-2.7h0.9V62.4z M77.7,58.7h-0.9V56h0.9V58.7z M77.7,55.1h-0.9v-2.7h0.9V55.1z M77.7,51.4h-0.9v-2.7h0.9V51.4z
				 M77.7,47.8h-0.9v-2.7h0.9V47.8z M77.7,44.1h-0.9v-2.7h0.9V44.1z M77.7,40.5h-0.9v-2.7h0.9V40.5z M77.7,36.9h-0.9v-4.1h0.9V36.9z
				 M80,66h-1.4v-2.7H80V66z M80,62.4h-1.4v-2.7H80V62.4z M80,58.7h-1.4V56H80V58.7z M80,55.1h-1.4v-2.7H80V55.1z M80,51.4h-1.4
				v-2.7H80V51.4z M80,47.8h-1.4v-2.7H80V47.8z M80,44.1h-1.4v-2.7H80V44.1z M80,40.5h-1.4v-2.7H80V40.5z M80,36.9h-1.4v-4.1H80
				V36.9z M81.8,66h-0.9v-2.7h0.9V66z M81.8,62.4h-0.9v-2.7h0.9V62.4z M81.8,58.7h-0.9V56h0.9V58.7z M81.8,55.1h-0.9v-2.7h0.9V55.1z
				 M81.8,51.4h-0.9v-2.7h0.9V51.4z M81.8,47.8h-0.9v-2.7h0.9V47.8z M81.8,44.1h-0.9v-2.7h0.9V44.1z M81.8,40.5h-0.9v-2.7h0.9V40.5z
				 M81.8,36.9h-0.9v-4.1h0.9V36.9z M83.7,66h-0.9v-2.7h0.9V66z M83.7,62.4h-0.9v-2.7h0.9V62.4z M83.7,58.7h-0.9V56h0.9V58.7z
				 M83.7,55.1h-0.9v-2.7h0.9V55.1z M83.7,51.4h-0.9v-2.7h0.9V51.4z M83.7,47.8h-0.9v-2.7h0.9V47.8z M83.7,44.1h-0.9v-2.7h0.9V44.1z
				 M83.7,40.5h-0.9v-2.7h0.9V40.5z M83.7,36.9h-0.9v-4.1h0.9V36.9z M86.4,66h-1.8v-2.7h1.8V66z M86.4,62.4h-1.8v-2.7h1.8V62.4z
				 M86.4,58.7h-1.8V56h1.8V58.7z M86.4,55.1h-1.8v-2.7h1.8V55.1z M86.4,51.4h-1.8v-2.7h1.8V51.4z M86.4,47.8h-1.8v-2.7h1.8V47.8z
				 M86.4,44.1h-1.8v-2.7h1.8V44.1z M86.4,40.5h-1.8v-2.7h1.8V40.5z M86.4,36.9h-1.8v-4.1h1.8V36.9z M87.1,78.2l0.3-3.1h17.1
				l0.5,3.1H87.1z M123.8,78.7v-6.3h-0.1c0,0,0,0,0-0.1c0-1.3-1.1-2.3-2.5-2.3c-1.4,0-2.5,1-2.5,2.3c0,0,0,0,0,0.1h0v6.3h-1.6v-6.3
				h-0.1c0,0,0,0,0-0.1c0-2.2-1.2-4-2.7-4s-2.7,1.8-2.7,4c0,0,0,0,0,0.1h0v6.3h-1v-6.3h-0.1c0,0,0,0,0-0.1c0-1.3-1.1-2.3-2.5-2.3
				s-2.5,1-2.5,2.3c0,0,0,0,0,0.1h0v6.3l-1.8-12.3h22.6v12.3H123.8z M144.5,78.7h-16.8V64.1h16.8V78.7z M145.9,78.7h-0.5v-1.4h0.5
				V78.7z M145.9,76.9h-0.5V75h0.5V76.9z M145.9,74.6h-0.5v-1.8h0.5V74.6z M145.9,72.3h-0.5v-1.8h0.5V72.3z M145.9,70.1h-0.5v-1.8
				h0.5V70.1z M145.9,67.8h-0.5v-1.9h0.5V67.8z M145.9,65.5h-0.5v-1.4v-0.9h0.5V65.5z M146.8,78.7h-0.5v-1.4h0.5V78.7z M146.8,76.9
				h-0.5V75h0.5V76.9z M146.8,74.6h-0.5v-1.8h0.5V74.6z M146.8,72.3h-0.5v-1.8h0.5V72.3z M146.8,70.1h-0.5v-1.8h0.5V70.1z
				 M146.8,67.8h-0.5v-1.9h0.5V67.8z M146.8,65.5h-0.5v-2.3h0.5V65.5z M147.7,78.7h-0.5v-1.4h0.5V78.7z M147.7,76.9h-0.5V75h0.5
				V76.9z M147.7,74.6h-0.5v-1.8h0.5V74.6z M147.7,72.3h-0.5v-1.8h0.5V72.3z M147.7,70.1h-0.5v-1.8h0.5V70.1z M147.7,67.8h-0.5v-1.9
				h0.5V67.8z M147.7,65.5h-0.5v-2.3h0.5V65.5z M195,58.7L195,58.7l1.4-0.1v3.1l-1.1-1.1l-0.2,0.2v-1.7h0L195,58.7L195,58.7z
				 M203.5,58.7l-1.7,1.9v-1.9H203.5z M201.4,61.1l-2.7,3l-1.8-1.9v-3.5h4.6V61.1z M199.5,65.1h7.8v8.2h-1.9v0.4h-1.8V71h-1.8v2.7
				h-2.3v-7v-0.3v-0.5v-0.1v-0.1v-0.2V65.1z M191.3,66.4v-0.5h7.8v0.5H191.3z M193.6,67.8V70h-1.4v-2.3H193.6z M195.5,65.5H195v-1.4
				h0.5V65.5z M195.4,67.8h1.8v1.4h-1.8V67.8z M198.2,71.4l0,1.8h-2.3l0-1.8H198.2z M199.5,74.1h3.6v0.5h-3.6V74.1z M195.2,61.6
				l3.4,3.5v0.4h-2.8v-1.9h-0.3h-0.2H195h-0.5v0.5v1.4h-3.1L195.2,61.6z M189.6,65.9l0.1,0.2l1.1,0l0,0v0.4v0.5h-2.7V65h-1.4v1.8
				h-2.3l3.1-3.5L189.6,65.9L189.6,65.9L189.6,65.9z M183.6,67.8h7.3v0.4h-7.3V67.8z M194.1,71.4h0.9v3.2h-0.9V71.4z M234.1,67.8
				v-0.9h1v0.9h0.4v5h-1.9v-5H234.1z M238.3,67.8v5h-1.9v-5h0.5v-0.9h1v0.9H238.3z M241.3,67.8v5h-2.1v-5h0.5v-0.9h1.2v0.9H241.3z
				 M230.8,67.7h0.6v-0.9h0.9v0.9h0.4v5h-1.9V67.7z M217.7,39.6h3.2v0.9h-3.2V39.6z M217.3,44.6h0.9v-3.2h-0.9V41h4.1v0.4h-0.4v3.2
				h0.4v0.5h-4.1V44.6z M217.3,45.6h4.1v19h-4.1V45.6z M214.5,69.1h-1.8v-1.8h1.8V69.1z M211.8,63.7h1.8v1.4h-1.8V63.7z M210.4,67.3
				h1.4v3.2h-1.4V67.3z M209.1,63.7h0.9V66h-0.9V63.7z M206.8,63.7v0.9h-7.3h-0.3h-0.1l1.1-1.2v0.3H206.8z M206.5,61.5l-2.8-2.9h4.5
				v1.1L206.5,61.5z M212.8,50.5h-4.1v-0.4h4.1V50.5z M211.4,49.1h-1v-2.7h1V49.1z M212.8,49.6h-1v-3.1V46H210v0.5v3.1h-0.5v-4.1
				h3.2V49.6z M209.1,45.5v4.1h-0.5v-4.1H209.1z M212.7,42.8h-0.9v-3.2v-0.5H210v0.5v3.2h-0.5v-4.1h3.2V42.8z M211.4,42.3h-1v-2.7h1
				V42.3z M208.6,38.7h0.5v4.1h-0.5V38.7z M210.4,29.6L210.4,29.6h0.5h0V31c-0.1,0-0.1,0-0.2,0c-0.1,0-0.2,0-0.3,0V29.6z
				 M212.7,36.4v0.5h-4.1v-0.5H212.7z M208.6,43.2h4.1v0.5h-4.1V43.2z M208.2,44.6v-0.5h5.1v0.5h-0.1H213h-0.2h-4.1H208.2
				L208.2,44.6L208.2,44.6z M201.7,54.2l6.5,3.5v-0.1h0.4v-5.7h4.1v5.5l-1.2-1.2l-2.9,3.2v-0.6v-0.4v-0.1H195v-0.6L201.7,54.2z
				 M198.2,55.5l-3.2,1.7v-1.7H198.2z M194.6,50.5h-4.1v-0.4h4.1V50.5z M193.2,49.1h-1v-2.7h1V49.1z M194.6,49.6h-1v-3.1V46h-1.8
				v0.5v3.1h-0.5v-4.1h3.2V49.6z M190.9,45.5v4.1h-0.5v-4.1H190.9z M194.6,42.8h-0.9v-3.2v-0.5h-1.8v0.5v3.2h-0.5v-4.1h3.2V42.8z
				 M193.2,42.3h-1v-2.7h1V42.3z M190.4,38.7h0.5v4.1h-0.5V38.7z M192.2,29.6L192.2,29.6h0.5h0V31c-0.1,0-0.1,0-0.2,0
				c-0.1,0-0.2,0-0.3,0V29.6z M194.6,36.4v0.5h-4.1v-0.5H194.6z M190.4,43.2h4.1v0.5h-4.1V43.2z M190,44.6v-0.5h5.1v0.5H195h-0.2
				h-0.2h-4.1H190L190,44.6L190,44.6z M190.4,51.8h4.1v5.5h-4.1V51.8z M194.6,57.7v1h-7.3v-1H194.6z M186.8,58.7h-7.3v-6.9h7.3V58.7
				z M170.9,58.7v-6.1c1.1,0.8,2.4,1.3,3.8,1.3c1.8,0,3.3-0.7,4.5-1.9v2.6h-1.9v-0.4h-4.5v0.4h-1.4V55h1.8v-0.4h3.6V55h2.3v0.9h-1.9
				v-0.4h-4.5v0.4h-1.4v0.4h1.8v-0.4h3.6v0.4h2.3v1h-1.9v-0.4h-4.5v0.4h-1.4v0.4h1.8v-0.4h3.6v0.4h2.3v1H170.9z M165.4,56.4
				l-1.8-1.4h-0.9v-3.3h0.5h0.4h5h0.4h1c0.1,0.1,0.3,0.3,0.4,0.4v6.5h-7.3v-1.8h2.3V56.4z M159.1,55.1h-0.8v-3.3h0.8V55.1z
				 M159.5,51.8h0.5v3.3h-0.5V51.8z M160.5,51.8h0.9v3.3h-0.9V51.8z M161.8,51.8h0.5v3.3h-0.5V51.8z M169.1,47.6
				c0-0.3,0-0.6,0.1-0.9l2.2,0.4c0,0.1,0,0.2,0,0.3L169.1,47.6C169.1,47.6,169.1,47.6,169.1,47.6z M179.6,51.4
				c0.4-0.5,0.7-1,0.9-1.6v1.6H179.6z M171.4,47.9c0,0.1,0,0.2,0,0.3l-2.1,0.7c-0.1-0.3-0.1-0.6-0.2-0.9L171.4,47.9z M179.8,49.6
				l-2.1-0.8c0-0.1,0.1-0.2,0.1-0.3l2.2,0.3C180,49,179.9,49.3,179.8,49.6z M179.6,50c-0.1,0.3-0.3,0.5-0.4,0.8l-1.8-1.3
				c0.1-0.1,0.1-0.2,0.2-0.3L179.6,50z M170.6,51.3c-0.2-0.2-0.4-0.5-0.5-0.7l1.9-1.2c0.1,0.1,0.1,0.2,0.2,0.3L170.6,51.3z
				 M171.6,48.7c0,0.1,0.1,0.2,0.1,0.3l-1.9,1.2c-0.1-0.3-0.3-0.5-0.4-0.8L171.6,48.7z M170.9,51.6l1.5-1.6c0.1,0.1,0.2,0.1,0.3,0.2
				l-1.1,1.9C171.3,52,171.1,51.8,170.9,51.6L170.9,51.6z M173.1,50.5c0.1,0.1,0.2,0.1,0.3,0.2l-0.6,2.2c-0.3-0.1-0.6-0.2-0.8-0.4
				L173.1,50.5z M173.8,50.8c0.1,0,0.2,0,0.3,0.1l-0.1,2.3c-0.3,0-0.6-0.1-0.9-0.2L173.8,50.8z M174.6,50.9
				C174.6,50.9,174.6,50.9,174.6,50.9c0.1,0,0.2,0,0.3,0l0.5,2.2c-0.3,0-0.5,0.1-0.8,0.1c0,0-0.1,0-0.1,0L174.6,50.9z M175.9,53
				l-0.5-2.2c0.1,0,0.2-0.1,0.3-0.1l1,2C176.5,52.8,176.2,52.9,175.9,53z M177.1,52.5l-1-2c0.1-0.1,0.2-0.1,0.3-0.2l1.4,1.7
				C177.7,52.2,177.4,52.4,177.1,52.5z M178.3,51.8l-1.4-1.7c0.1-0.1,0.2-0.2,0.2-0.2l1.8,1.3C178.7,51.4,178.5,51.6,178.3,51.8z
				 M180.1,47.6c0,0.2,0,0.4,0,0.7l-2.2-0.3c0-0.1,0-0.2,0-0.3l2.2-0.2C180.1,47.5,180.1,47.5,180.1,47.6z M177.9,47.2
				c0-0.1,0-0.2-0.1-0.3l2.1-0.8c0.1,0.3,0.1,0.6,0.2,0.9L177.9,47.2z M177.7,46.4c0-0.1-0.1-0.2-0.1-0.3l1.9-1.3
				c0.1,0.3,0.3,0.5,0.4,0.8L177.7,46.4z M176.7,45.1c-0.1-0.1-0.2-0.2-0.3-0.2l1-2c0.3,0.2,0.5,0.3,0.7,0.5L176.7,45.1z
				 M176.1,44.7c-0.1,0-0.2-0.1-0.3-0.1l0.5-2.2c0.3,0.1,0.6,0.2,0.8,0.3L176.1,44.7z M175.3,44.4c-0.1,0-0.2,0-0.3,0v-2.3
				c0.3,0,0.6,0.1,0.9,0.1L175.3,44.4z M174.5,44.3c-0.1,0-0.2,0-0.2,0l-0.5-2.2c0.2,0,0.5-0.1,0.7-0.1V44.3z M173.9,44.4
				c-0.1,0-0.2,0.1-0.3,0.1l-1-2c0.3-0.1,0.5-0.2,0.8-0.3L173.9,44.4z M173.1,44.7c-0.1,0-0.1,0.1-0.2,0.1l-1.4-1.8
				c0.2-0.1,0.4-0.2,0.6-0.4L173.1,44.7z M171.8,46l-2.1-0.9c0.1-0.3,0.3-0.5,0.5-0.7l1.8,1.4C171.9,45.8,171.9,45.9,171.8,46z
				 M171.6,46.4c0,0.1-0.1,0.2-0.1,0.3l-2.2-0.4c0.1-0.3,0.2-0.6,0.3-0.8L171.6,46.4z M169.7,51.4h-0.6v-1
				C169.2,50.8,169.4,51.1,169.7,51.4z M185.9,47.3v4.1h-5v-3.9h0c0-0.1,0-0.2,0-0.3H185.9z M179.1,44.5l-1.9,1.3
				c-0.1-0.1-0.1-0.2-0.2-0.3l1.5-1.7C178.8,44,179,44.2,179.1,44.5z M171.2,43.3l1.4,1.8c-0.1,0.1-0.2,0.1-0.3,0.2l-1.8-1.4
				C170.7,43.7,171,43.5,171.2,43.3z M163.6,47.3h4.8c0,0.1,0,0.2,0,0.3c0,0.6,0.1,1.2,0.3,1.8v2h-5v-0.9h0V47.3z M157.2,50h5.1v0.5
				h-5.1V50z M156.8,51.4v-0.5h5.9v0.5H156.8z M157.3,51.8h0.5v3.3h-0.5V51.8z M155.9,56.4v-0.9h7.7v0.9H155.9z M162.7,56.9v3.2
				h-0.5v-3.2H162.7z M161.8,56.9v3.2h-0.9v-3.2H161.8z M160.4,56.9v3.2H160v-3.2H160.4z M159.5,56.9v3.2h-0.5v-3.2H159.5z
				 M158.6,56.9v3.2h-0.9v-3.2H158.6z M157.3,56.9v3.2h-0.5v-3.2H157.3z M155.5,60.5h7.7V61h-7.7V60.5z M155.5,61.4h8.2l0.9,0.9
				h-9.9L155.5,61.4z M164.9,68.7L164.9,68.7l1,0.9h-9.3h-0.2h-1.9h-0.7l0.9-0.9h1.8v0H164.9z M156.4,75h0.2h0.7v-5h0.5v5h0.9v-5
				h0.5v5h0.9v-5h0.9v5h0.5v-5h0.9v5h0.9v-5h0.5v5h0.9V76h-10V75h1.4v-5h0.4L156.4,75L156.4,75z M153.6,72.3v-1.8h0.9v1.8H153.6z
				 M154.5,72.8v1.8h-0.9v-1.8H154.5z M154.5,65.9v1.9h-0.9v-1.9H154.5z M153.6,65.5v-2.3h0.9v2.3H153.6z M154.5,68.2v0.2l-0.9,0.9
				v-1.1H154.5z M155.5,65.9v1.9H155v-1.9H155.5z M155,65.5v-2.3h0.5v2.3H155z M156.4,65.9v1v0.4v0.1h-0.5v-1.4H156.4z M155.9,65.5
				v-2.3h0.5v2.3H155.9z M156.4,68.2v-0.4h0v0h6.8v0.4H156.4z M156.8,66.9v-4.1h0.9v4.1H156.8z M158.2,66.9v-4.1h0.4v4.1H158.2z
				 M159.5,66.9v-4.1h0.5v4.1H159.5z M160.9,66.9v-4.1h0.5v4.1H160.9z M161.8,66.9v-4.1h0.9v4.1H161.8z M150,62.8h6.4v0L150,62.8
				L150,62.8z M149.1,78.7h-0.9v-1.4h0.9V78.7z M149.1,76.9h-0.9V75h0.9V76.9z M149.1,74.6h-0.9v-1.8h0.9V74.6z M149.1,72.3h-0.9
				v-1.8h0.9V72.3z M149.1,70.1h-0.9v-1.8h0.9V70.1z M149.1,67.8h-0.9v-1.9h0.9V67.8z M149.1,65.5h-0.9v-2.3h0.9V65.5z M150,78.7
				h-0.5v-1.4h0.5V78.7z M150,76.9h-0.5V75h0.5V76.9z M150,74.6h-0.5v-1.8h0.5V74.6z M150,72.3h-0.5v-1.8h0.5V72.3z M150,70.1h-0.5
				v-1.8h0.5V70.1z M150,67.8h-0.5v-1.9h0.5V67.8z M150,65.5h-0.5v-2.3h0.5h0V65.5z M150.9,78.7h-0.5v-1.4h0.5V78.7z M150.9,76.9
				h-0.5V75h0.5V76.9z M150.9,74.6h-0.5v-1.8h0.5V74.6z M150.9,72.3h-0.5v-1.8h0.5V72.3z M150.9,70.1h-0.5v-1.8h0.5V70.1z
				 M150.9,67.8h-0.5v-1.9h0.5V67.8z M150.9,65.5h-0.5v-2.3h0.5V65.5z M152.2,78.7h-0.9v-1.4h0.9V78.7z M152.2,76.9h-0.9V75h0.9
				V76.9z M152.2,74.6h-0.9v-1.8h0.9V74.6z M152.2,72.3h-0.9v-1.8h0.9V72.3z M152.2,70.1h-0.9v-1.8h0.9V70.1z M152.2,67.8h-0.9v-1.9
				h0.9V67.8z M152.2,65.5h-0.9v-2.3h0.9V65.5z M153.2,76.9h-0.5V75h0.5V76.9z M153.2,74.6h-0.5v-1.8h0.5V74.6z M153.2,72.3h-0.5
				v-1.8h0.5V72.3z M153.2,70.1h-0.5v-1.8h0.5V70.1z M153.2,67.8h-0.5v-1.9h0.5V67.8z M153.2,65.5h-0.5v-2.3h0.5V65.5z M153.6,75
				h0.4V76h-0.4V75z M165.5,77.3h-8.9h-2h-0.1h-0.4V77v-0.1v-0.5h0.3v0h11.1V77.3z M165.9,77.3V76h-0.3h-0.1H165v-1.4h-0.4v-4.5h1.8
				v-0.4l0,0l-1.4-1.4l-0.3,0h-0.6v-0.4h-0.5v-0.9h0v-4.1h1.8v-0.2l0,0l0,0v-0.3h-0.3l-1.1-1.1V61h-0.4v-0.4v0v-0.5h-0.5v-0.9h7.3
				h0.4h3.2v7.2h1.8v-7.2h3.2h0.4h15v2.1l-4,4.1l-0.4,0l-2.5-3.1l-3.8,4.3l-1.2,0.9l-3.5-3.5l-3.8,3.8h-0.7v0.8h1l3.5-3.5l3.4,3.4
				l0.7-0.5v1.2H180v-0.5h1.8l-2.9-3.1l-3,3.1h2.3v0.5H175v0.4h8.2v0.5H175v8.6h-8.2v-1.4H165.9z M176.4,72.8V71h1.4v1.8H176.4z
				 M181.4,72.3h-2.3V71h2.3V72.3z M181.8,74.6V76H180v-1.4H181.8z M179.1,74.6v2.7h-0.9v-2.7H179.1z M187.3,78.7v-4.1H185v4.1h-1.4
				v-8.5v-0.2v-0.5v-0.4v-0.5h0.9V71h1.4v-2.3h5v5.9v1v3.1H187.3z"/>
			<rect x="134" y="52.8" class="st3" width="14.6" height="0.9"/>
			<path class="st3" d="M148.6,51.9v-0.4v-5.1V46v-0.4H134V46v0.4v5.1v0.4v0.4h14.6V51.9z M139.5,46.9v-0.4h0.9v0.4h0.5v4.6h-1.8
				v-4.6H139.5z M141.8,46.9h0.5v-0.4h0.9v0.4h0.5v4.6h-1.8V46.9z M144.5,46.9h0.5v-0.4h1.4v0.4h0.4v4.6h-2.2V46.9z M135.9,46.9h0.5
				v-0.4h1.4v0.4h0.4v4.6h-2.2V46.9z"/>
			<polygon class="st3" points="135,44.6 135.4,44.6 135.4,45 135.9,45 135.9,44.6 136.3,44.6 136.3,45 136.8,45 136.8,44.6 
				137.2,44.6 137.2,45 137.6,45 137.6,44.6 138.1,44.6 138.1,45 138.5,45 138.5,44.6 138.9,44.6 138.9,45 139.4,45 139.4,44.6 
				139.8,44.6 139.8,45 140.3,45 140.3,44.6 140.7,44.6 140.7,45 141.1,45 141.1,44.6 141.6,44.6 141.6,45 142,45 142,44.6 
				142.5,44.6 142.5,45 142.9,45 142.9,44.6 143.3,44.6 143.3,45 143.8,45 143.8,44.6 144.2,44.6 144.2,45 144.6,45 144.6,44.6 
				145.1,44.6 145.1,45 145.5,45 145.5,44.6 146,44.6 146,45 146.4,45 146.4,44.6 146.8,44.6 146.8,45 147.3,45 147.3,44.6 
				147.7,44.6 147.7,45 148.1,45 148.1,44.6 148.2,44.6 148.2,44.1 148.1,44.1 148.1,43.6 147.7,43.6 147.7,44.1 147.3,44.1 
				147.3,43.6 146.8,43.6 146.8,44.1 146.4,44.1 146.4,43.6 146,43.6 146,44.1 145.5,44.1 145.5,43.6 145.1,43.6 145.1,44.1 
				144.6,44.1 144.6,43.6 144.2,43.6 144.2,44.1 143.8,44.1 143.8,43.6 143.3,43.6 143.3,44.1 142.9,44.1 142.9,43.6 142.5,43.6 
				142.5,44.1 142,44.1 142,43.6 141.6,43.6 141.6,44.1 141.1,44.1 141.1,43.6 140.7,43.6 140.7,44.1 140.3,44.1 140.3,43.6 
				139.8,43.6 139.8,44.1 139.4,44.1 139.4,43.6 138.9,43.6 138.9,44.1 138.5,44.1 138.5,43.6 138.1,43.6 138.1,44.1 137.6,44.1 
				137.6,43.6 137.2,43.6 137.2,44.1 136.8,44.1 136.8,43.6 136.3,43.6 136.3,44.1 135.9,44.1 135.9,43.6 135.4,43.6 135.4,44.1 
				135,44.1 135,43.6 134.6,43.6 134.6,44.1 134.6,44.6 134.6,45 135,45 			"/>
			<path class="st3" d="M148.6,41.5h-0.7c0-3.5-2-6.4-4.8-7.2v-2h-0.6l-1-7.1l-1,7.1H140v2c-2.7,0.8-4.7,3.7-4.7,7.2h-0.7v1.6h14.1
				V41.5z"/>
		</g>
	</g>
</g>
</svg>
