<?xml version="1.0" encoding="utf-8"?>
<!-- Generator: Adobe Illustrator 23.0.3, SVG Export Plug-In . SVG Version: 6.00 Build 0)  -->
<svg version="1.1" id="Layer_1" xmlns="http://www.w3.org/2000/svg" xmlns:xlink="http://www.w3.org/1999/xlink" x="0px" y="0px"
	 viewBox="0 0 512 512" style="enable-background:new 0 0 512 512;" xml:space="preserve">
<style type="text/css">
	.st0{fill-rule:evenodd;clip-rule:evenodd;}
</style>
<g>
	<path class="st0" d="M145.2,244l73.6,35.9c14.2,6.9,12,27.7-3.3,31.5L136,331.2c-9.9,2.5-19.7-4.4-20.9-14.5
		c-2.5-21.7,0-43.2,6.6-63C125,244.1,136,239.5,145.2,244z"/>
	<path class="st0" d="M174.7,395.5l54.8-60.9c10.5-11.7,30-3.9,29.4,11.9l-2.9,81.9c-0.4,10.2-9.6,17.8-19.7,16.1
		c-21.2-3.6-41.2-11.7-58.7-23.7C169.2,415,167.8,403.1,174.7,395.5z"/>
	<path class="st0" d="M304.6,314.5l77.9,25.3c9.7,3.2,14.4,14.1,10,23.3c-9.1,19.1-22.4,36.2-38.9,49.9c-7.9,6.5-19.7,4.6-25.1-4.1
		L285,339.5C276.7,326.2,289.6,309.7,304.6,314.5z"/>
	<path class="st0" d="M383.8,264.8l-78.7,22.6c-15.1,4.3-27.5-12.6-18.6-25.7l45.8-67.9c5.7-8.4,17.5-10,25.1-3.3
		c15.7,13.9,28.6,31.2,37.3,51.2C398.7,251.2,393.6,262,383.8,264.8z"/>
	<path class="st0" d="M199.8,73.8c-14.2,3.8-27.7,8.8-40.5,14.9c-8.9,4.2-12.2,15.2-7.3,23.7l77,133.3c8.6,15,31.5,8.8,31.5-8.4
		V83.3c0-9.8-8.4-17.6-18.2-16.8C228.2,67.6,214,70,199.8,73.8z"/>
</g>
</svg>
